<?xml version="1.0" encoding="UTF-8"?>
<svg version="1.1" xmlns="http://www.w3.org/2000/svg" width="240" height="240">
<path d="M0 0 C0.66085602 0.00248749 1.32171204 0.00497498 2.00259399 0.00753784 C30.70164601 0.17445581 56.27716727 10.01616738 78.25 28.3125 C79.12269531 29.02019531 79.99539062 29.72789063 80.89453125 30.45703125 C102.51860224 48.81195135 116.82934656 77.33724574 120.25 105.3125 C122.37181522 140.30867306 114.86547621 171.15262668 92.25 198.3125 C91.54230469 199.18519531 90.83460938 200.05789062 90.10546875 200.95703125 C71.76733571 222.56132528 43.21452707 236.92930244 15.25 240.3125 C10.32966043 240.60151024 5.42798208 240.64723903 0.5 240.625 C-0.16085602 240.62251251 -0.82171204 240.62002502 -1.50259399 240.61746216 C-30.20164601 240.45054419 -55.77716727 230.60883262 -77.75 212.3125 C-78.62269531 211.60480469 -79.49539062 210.89710938 -80.39453125 210.16796875 C-102.37437495 191.51106205 -116.49967799 162.7212091 -119.75 134.3125 C-121.787976 99.72946694 -114.08178939 69.07575385 -91.75 42.3125 C-91.0075 41.41660156 -90.265 40.52070312 -89.5 39.59765625 C-67.13071922 13.67325763 -33.85382148 -0.15277578 0 0 Z " fill="#F5C904" transform="translate(119.75,-0.3125)"/>
<path d="M0 0 C0.66085602 0.00248749 1.32171204 0.00497498 2.00259399 0.00753784 C30.70164601 0.17445581 56.27716727 10.01616738 78.25 28.3125 C79.12269531 29.02019531 79.99539062 29.72789063 80.89453125 30.45703125 C102.51860224 48.81195135 116.82934656 77.33724574 120.25 105.3125 C122.37181522 140.30867306 114.86547621 171.15262668 92.25 198.3125 C91.54230469 199.18519531 90.83460938 200.05789062 90.10546875 200.95703125 C71.76733571 222.56132528 43.21452707 236.92930244 15.25 240.3125 C10.32966043 240.60151024 5.42798208 240.64723903 0.5 240.625 C-0.16085602 240.62251251 -0.82171204 240.62002502 -1.50259399 240.61746216 C-30.20164601 240.45054419 -55.77716727 230.60883262 -77.75 212.3125 C-78.62269531 211.60480469 -79.49539062 210.89710938 -80.39453125 210.16796875 C-102.37437495 191.51106205 -116.49967799 162.7212091 -119.75 134.3125 C-121.787976 99.72946694 -114.08178939 69.07575385 -91.75 42.3125 C-91.0075 41.41660156 -90.265 40.52070312 -89.5 39.59765625 C-67.13071922 13.67325763 -33.85382148 -0.15277578 0 0 Z M-58.75 50.3125 C-59.5440625 50.95316406 -60.338125 51.59382813 -61.15625 52.25390625 C-77.09891561 65.61326956 -87.84301393 85.76262066 -90.75 106.3125 C-93.10891373 133.48684555 -87.19841269 158.71478341 -69.5 180 C-58.04579026 193.29824932 -43.26725992 202.52158816 -26.75 208.3125 C-25.85152344 208.6321875 -24.95304687 208.951875 -24.02734375 209.28125 C-1.4748567 215.83755848 23.79477511 211.33404758 44.265625 200.75390625 C66.33027467 188.50519688 81.40859974 169.16141374 88.5 145 C94.87621135 122.08222397 92.42451764 97.10125042 80.89624023 76.26733398 C67.36635614 53.11227434 47.32447318 38.29103074 21.51171875 31.109375 C-6.79899391 24.1927458 -36.87099087 31.08421698 -58.75 50.3125 Z " fill="#F4F19D" transform="translate(119.75,-0.3125)"/>
<path d="M0 0 C12.44286442 9.58866497 21.08535469 20.9636796 28.35351562 34.78808594 C28.76472656 35.54476562 29.1759375 36.30144531 29.59960938 37.08105469 C39.4366091 56.86988293 39.09762565 82.15904351 32.35351562 102.78808594 C24.04488692 126.85445873 7.90327241 144.46405707 -14.42773438 156.25683594 C-35.23865795 166.29504613 -61.14272128 168.59663352 -83.23632812 161.47167969 C-94.34962313 157.44147521 -104.75374884 151.58687385 -113.64648438 143.78808594 C-114.74476562 142.9025 -114.74476562 142.9025 -115.86523438 141.99902344 C-132.67990537 128.00599244 -142.48797519 107.16206108 -145.64648438 85.78808594 C-147.55721735 58.38237033 -141.91967183 35.07245811 -124.23632812 13.71777344 C-116.45123789 4.91111027 -107.86413755 -1.46528945 -97.64648438 -7.21191406 C-96.86144531 -7.68371094 -96.07640625 -8.15550781 -95.26757812 -8.64160156 C-66.03844805 -25.0099144 -26.31967411 -19.37290366 0 0 Z M-89.09960938 -9.15722656 C-94.98376857 -3.22375877 -100.20567299 2.65741165 -104.64648438 9.78808594 C-105.26523438 10.75746094 -105.88398437 11.72683594 -106.52148438 12.72558594 C-107.65070269 15.79956912 -107.8135973 17.98301356 -107.95898438 21.22558594 C-108.30950104 26.26763329 -109.36934255 28.11377976 -112.83007812 31.61621094 C-124.22348179 45.23929145 -128.08426053 64.53477205 -126.64648438 81.78808594 C-125.42918533 90.2303613 -123.16973855 98.02619602 -119.64648438 105.78808594 C-121.29648438 105.78808594 -122.94648437 105.78808594 -124.64648438 105.78808594 C-123.52188766 107.55917541 -122.39679235 109.32994829 -121.27148438 111.10058594 C-120.33175781 112.57978516 -120.33175781 112.57978516 -119.37304688 114.08886719 C-118.14996824 116.00096523 -116.90554877 117.89948934 -115.64648438 119.78808594 C-114.65648437 119.97371094 -113.66648437 120.15933594 -112.64648438 120.35058594 C-108.687941 121.3198589 -106.77272617 123.4781293 -104.02148438 126.41308594 C-92.79293415 138.1852271 -77.30683472 145.55656806 -61.01367188 145.99121094 C-58.84965646 146.0123749 -56.68557898 146.02782956 -54.52148438 146.03808594 C-52.92433594 146.06902344 -52.92433594 146.06902344 -51.29492188 146.10058594 C-34.40739751 146.18256421 -19.23983648 140.09048772 -6.64648438 128.78808594 C-6.0303125 128.08039063 -5.41414063 127.37269531 -4.77929688 126.64355469 C-2.64648438 124.78808594 -2.64648438 124.78808594 0.29882812 124.44824219 C4.00128158 123.6480956 5.0288212 122.17308075 7.08007812 119.07910156 C7.4590625 118.46744141 7.83804688 117.85578125 8.22851562 117.22558594 C8.63070312 116.61005859 9.03289062 115.99453125 9.44726562 115.36035156 C10.432704 113.84699977 11.39542684 112.3188989 12.35351562 110.78808594 C11.36351562 110.45808594 10.37351563 110.12808594 9.35351562 109.78808594 C9.7634375 108.85867187 10.17335937 107.92925781 10.59570312 106.97167969 C11.14020429 105.72308219 11.6844621 104.47437855 12.22851562 103.22558594 C12.63263672 102.31196289 12.63263672 102.31196289 13.04492188 101.37988281 C20.12217644 85.06767412 20.68519128 66.43038218 14.35351562 49.78808594 C6.06069918 29.4636082 -7.58955272 15.57862441 -27.6171875 6.63842773 C-33.62661751 4.12027991 -38.95626476 2.568358 -45.484375 2.32128906 C-57.61632138 1.83994058 -67.01368355 -2.3814826 -77.58203125 -8.09863281 C-78.26330078 -8.46601562 -78.94457031 -8.83339844 -79.64648438 -9.21191406 C-80.33291016 -9.58960938 -81.01933594 -9.96730469 -81.7265625 -10.35644531 C-85.10142913 -11.86020074 -86.28419962 -11.51535639 -89.09960938 -9.15722656 Z " fill="#251656" transform="translate(174.646484375,46.2119140625)"/>
<path d="M0 0 C-0.66 3.3 -1.32 6.6 -2 10 C-2.99 10.33 -3.98 10.66 -5 11 C-5 11.66 -5 12.32 -5 13 C-5 13.99 -5 14.98 -5 16 C-4.34 16 -3.68 16 -3 16 C-3.495 14.02 -3.495 14.02 -4 12 C-2.68 12 -1.36 12 0 12 C0 12.66 0 13.32 0 14 C0.66 14 1.32 14 2 14 C2 13.01 2 12.02 2 11 C2.94875 11.20625 3.8975 11.4125 4.875 11.625 C5.90625 11.74875 6.9375 11.8725 8 12 C10.6855594 9.3144406 11.06049974 6.62378672 12 3 C12.309375 3.86625 12.309375 3.86625 12.625 4.75 C14.48481665 7.79333634 17.04544187 9.07311426 20 11 C20 11.66 20 12.32 20 13 C18.75347656 13.32871094 17.50695312 13.65742188 16.22265625 13.99609375 C-0.10198498 18.48287027 -14.21022786 24.70275064 -27 36 C-27.969375 36.7734375 -28.93875 37.546875 -29.9375 38.34375 C-43.18243141 49.384327 -52.80480813 67.4973668 -57 84 C-57.22300781 84.8559375 -57.44601563 85.711875 -57.67578125 86.59375 C-63.11193111 112.33225544 -57.82243877 138.88409796 -44 161 C-41.48526752 164.47667869 -38.79205071 167.74453838 -36 171 C-35.54367188 171.60070312 -35.08734375 172.20140625 -34.6171875 172.8203125 C-23.81016462 186.73354555 -4.78191431 196.73381111 12 201 C12.8559375 201.22300781 13.711875 201.44601563 14.59375 201.67578125 C40.32533065 207.11046854 66.89205255 201.82836135 89 188 C92.46951364 185.4784672 95.74953214 182.79551199 99 180 C99.97453125 179.22398437 100.9490625 178.44796875 101.953125 177.6484375 C118.74823021 163.62368636 128.77512715 140.39473694 131 119 C131.15977521 115.04063901 131.18505719 111.08724267 131.1875 107.125 C131.19974609 106.08730469 131.21199219 105.04960938 131.22460938 103.98046875 C131.23518964 98.38703629 130.88645866 93.30498975 129.44311523 87.89038086 C128.82295521 85.24470646 128.86147879 82.7011636 129 80 C132.3 79.34 135.6 78.68 139 78 C137.02 78 135.04 78 133 78 C133.0625 76.25 133.0625 76.25 134 74 C136.24164322 72.40498463 138.53566643 71.25456982 141 70 C140.67 69.01 140.34 68.02 140 67 C140.99 67 141.98 67 143 67 C149.95317943 89.39879176 153.39305626 111.92828488 147 135 C146.83371094 135.63276855 146.66742188 136.26553711 146.49609375 136.91748047 C138.42877355 167.28197733 118.94983787 192.05125799 91.87109375 207.95214844 C65.2197328 222.87746696 33.31518267 226.1936846 4 218 C-12.15254144 213.26128789 -26.41385952 205.14182928 -39 194 C-39.70382813 193.42765625 -40.40765625 192.8553125 -41.1328125 192.265625 C-55.77691016 180.20577987 -65.10545831 163.34937949 -72 146 C-72.32742187 145.21496094 -72.65484375 144.42992187 -72.9921875 143.62109375 C-83.09723065 117.00420174 -79.21415539 85.49952418 -68 60 C-59.20233105 41.07244366 -44.05890095 22.68623038 -26 12 C-24.88882813 11.32582031 -23.77765625 10.65164062 -22.6328125 9.95703125 C-5.91857777 -0 -5.91857777 -0 0 0 Z " fill="#F6F39F" transform="translate(84,12)"/>
<path d="M0 0 C0.75966064 0.01087646 1.51932129 0.02175293 2.30200195 0.03295898 C18.94960615 0.49895826 34.19219427 7.67947135 46 19.375 C59.35118434 34.81593493 64.21282094 52.05117205 63.23095703 72.06640625 C62.62129618 78.16043695 60.49415755 83.81395243 58 89.375 C57.70509171 90.12685074 57.41018341 90.87870148 57.1063385 91.65333557 C54.29136224 97.88675704 54.29136224 97.88675704 50.86048889 99.18391418 C48.17389503 99.46597933 45.61372858 99.46516241 42.9140625 99.3671875 C41.93891693 99.369534 40.96377136 99.37188049 39.95907593 99.3742981 C36.84582487 99.37501389 33.73750233 99.31548582 30.625 99.25 C27.52062936 99.21626732 24.41689633 99.1953994 21.31234741 99.18997192 C19.38333725 99.18327142 17.45428014 99.15866903 15.52578735 99.11349487 C9.79612187 99.05352605 6.14972051 99.90588932 1 102.375 C-3 102.375 -3 102.375 -5.625 100.4375 C-10.04438726 97.73676334 -13.91014578 97.57618001 -19 97.375 C-1.82863955 83.59355757 -1.82863955 83.59355757 7.66015625 78.04296875 C10.98095511 75.67572148 13.55759677 73.21617815 14.53125 69.1640625 C14.35225807 56.76887152 4.74012966 49.00041806 -3.61401367 40.85009766 C-17.90943625 26.88073048 -17.90943625 26.88073048 -18.4375 16.6875 C-18.3946911 10.83124276 -16.07443917 7.42140404 -12 3.375 C-11.43796875 2.81425781 -10.8759375 2.25351562 -10.296875 1.67578125 C-6.95748925 -0.2154015 -3.73422386 -0.07205747 0 0 Z " fill="#261656" transform="translate(121,56.625)"/>
<path d="M0 0 C0.66085602 0.00248749 1.32171204 0.00497498 2.00259399 0.00753784 C30.70164601 0.17445581 56.27716727 10.01616738 78.25 28.3125 C79.12269531 29.02019531 79.99539062 29.72789063 80.89453125 30.45703125 C102.51860224 48.81195135 116.82934656 77.33724574 120.25 105.3125 C122.37181522 140.30867306 114.86547621 171.15262668 92.25 198.3125 C91.54230469 199.18519531 90.83460938 200.05789062 90.10546875 200.95703125 C71.76733571 222.56132528 43.21452707 236.92930244 15.25 240.3125 C10.32966043 240.60151024 5.42798208 240.64723903 0.5 240.625 C-0.16085602 240.62251251 -0.82171204 240.62002502 -1.50259399 240.61746216 C-30.20164601 240.45054419 -55.77716727 230.60883262 -77.75 212.3125 C-78.62269531 211.60480469 -79.49539062 210.89710938 -80.39453125 210.16796875 C-102.37437495 191.51106205 -116.49967799 162.7212091 -119.75 134.3125 C-121.787976 99.72946694 -114.08178939 69.07575385 -91.75 42.3125 C-91.0075 41.41660156 -90.265 40.52070312 -89.5 39.59765625 C-67.13071922 13.67325763 -33.85382148 -0.15277578 0 0 Z M-26.75 9.3125 C-27.91402344 9.57933594 -29.07804687 9.84617187 -30.27734375 10.12109375 C-49.41862561 14.96562515 -65.70577941 25.72937557 -79.75 39.3125 C-80.57886719 40.08980469 -81.40773437 40.86710937 -82.26171875 41.66796875 C-102.40005301 60.98572572 -113.46943851 89.34346364 -114.17211914 116.99682617 C-114.32592913 146.40383111 -105.32590308 173.11649517 -85.75 195.3125 C-85.25113281 195.94285156 -84.75226563 196.57320312 -84.23828125 197.22265625 C-79.82710007 202.77139132 -74.33825201 207.00024501 -68.75 211.3125 C-67.96753906 211.92222656 -67.18507812 212.53195313 -66.37890625 213.16015625 C-42.93016235 230.5193444 -13.10175906 237.53241525 15.69921875 233.8046875 C19.60722653 233.19212651 23.41910006 232.30111934 27.25 231.3125 C28.22477295 231.06306641 28.22477295 231.06306641 29.21923828 230.80859375 C43.72308488 226.99086177 57.45674155 220.64958211 69.25 211.3125 C69.77803223 210.9004834 70.30606445 210.4884668 70.85009766 210.06396484 C94.48362255 191.44098709 108.57685989 165.50090263 113.83203125 136.05078125 C117.70498122 101.41140632 107.4101696 71.58436639 86.09765625 44.5859375 C67.83543019 23.16097955 40.08776168 9.40883026 12.25 6.3125 C-1.07168628 5.63472067 -13.79062047 6.08314005 -26.75 9.3125 Z " fill="#F8CC0F" transform="translate(119.75,-0.3125)"/>
<path d="M0 0 C1.54581309 1.30761396 3.0879299 2.61961993 4.625 3.9375 C5.21410156 4.38222656 5.80320313 4.82695313 6.41015625 5.28515625 C21.60908992 17.03468653 31.48322077 36.56774344 35.625 54.9375 C35.79942627 55.59669434 35.97385254 56.25588867 36.15356445 56.93505859 C37.72317777 63.16749033 37.97225918 69.15249744 37.9375 75.5625 C37.93331055 76.61920898 37.92912109 77.67591797 37.92480469 78.76464844 C37.80424993 87.15987636 36.88909871 94.8220293 34.625 102.9375 C34.35816406 103.94296875 34.09132812 104.9484375 33.81640625 105.984375 C30.02359484 118.72822133 23.33312351 129.96758717 14.625 139.9375 C14.09648437 140.60910156 13.56796875 141.28070313 13.0234375 141.97265625 C-0.28587104 158.46177495 -22.66460567 169.81725342 -43.421875 172.625 C-71.26706167 174.82620053 -97.20055879 170.4119672 -119.11328125 151.88671875 C-119.85964844 151.24347656 -120.60601562 150.60023438 -121.375 149.9375 C-122.04917969 149.40769531 -122.72335938 148.87789062 -123.41796875 148.33203125 C-140.36329932 134.63371013 -151.83959151 111.61855015 -154.20507812 90.12768555 C-156.30260233 63.09192461 -151.18667385 37.32836397 -133.25390625 16.12890625 C-132.63386719 15.40574219 -132.01382813 14.68257812 -131.375 13.9375 C-130.93027344 13.34839844 -130.48554688 12.75929688 -130.02734375 12.15234375 C-116.89381921 -4.83689442 -94.67886307 -14.84365343 -74.078125 -18.67578125 C-47.46629217 -21.45486506 -21.38977134 -16.9120933 0 0 Z M-117.375 6.9375 C-118.1690625 7.57816406 -118.963125 8.21882813 -119.78125 8.87890625 C-135.72391561 22.23826956 -146.46801393 42.38762066 -149.375 62.9375 C-151.73391373 90.11184555 -145.82341269 115.33978341 -128.125 136.625 C-116.67079026 149.92324932 -101.89225992 159.14658816 -85.375 164.9375 C-84.47652344 165.2571875 -83.57804687 165.576875 -82.65234375 165.90625 C-60.0998567 172.46255848 -34.83022489 167.95904758 -14.359375 157.37890625 C7.70527467 145.13019688 22.78359974 125.78641374 29.875 101.625 C36.25121135 78.70722397 33.79951764 53.72625042 22.27124023 32.89233398 C8.74135614 9.73727434 -11.30052682 -5.08396926 -37.11328125 -12.265625 C-65.42399391 -19.1822542 -95.49599087 -12.29078302 -117.375 6.9375 Z " fill="#F3C809" transform="translate(178.375,43.0625)"/>
<path d="M0 0 C3.14285616 0.59522163 4.99245699 1.54023297 7.43359375 3.58984375 C8.07603027 4.12198486 8.7184668 4.65412598 9.38037109 5.20239258 C10.3986499 6.06127075 10.3986499 6.06127075 11.4375 6.9375 C12.87515251 8.1289926 14.31397013 9.31908069 15.75390625 10.5078125 C16.46949707 11.09981445 17.18508789 11.69181641 17.92236328 12.30175781 C20.85904849 14.70217877 23.85762631 17.01489613 26.875 19.3125 C27.90882812 20.1065625 28.94265625 20.900625 30.0078125 21.71875 C31.99260312 23.23195851 33.98738317 24.7321588 35.9921875 26.21875 C37.35730469 27.25515625 37.35730469 27.25515625 38.75 28.3125 C39.54921875 28.90675781 40.3484375 29.50101563 41.171875 30.11328125 C43.35833468 32.36981976 43.6818133 33.91889213 44 37 C41.42866541 38.28566729 39.602829 38.12009778 36.72412109 38.11352539 C35.07263565 38.11341209 35.07263565 38.11341209 33.38778687 38.11329651 C32.19505157 38.10813522 31.00231628 38.10297394 29.7734375 38.09765625 C28.55548492 38.0962413 27.33753235 38.09482635 26.08267212 38.09336853 C22.1800901 38.08775639 18.27756477 38.07520179 14.375 38.0625 C11.73437583 38.05748657 9.09375076 38.05292339 6.453125 38.04882812 C-0.03126945 38.03778301 -6.51563068 38.02103302 -13 38 C-13.01803438 36.56881303 -13.03085711 35.13755982 -13.04150391 33.70629883 C-13.04920807 32.90928055 -13.05691223 32.11226227 -13.06484985 31.29109192 C-12.76178613 20.58410017 -6.55923182 8.27202826 0 0 Z " fill="#251656" transform="translate(70,81)"/>
<path d="M0 0 C-0.66 3.3 -1.32 6.6 -2 10 C-2.99 10.33 -3.98 10.66 -5 11 C-5 11.66 -5 12.32 -5 13 C-5 13.99 -5 14.98 -5 16 C-4.34 16 -3.68 16 -3 16 C-3.495 14.02 -3.495 14.02 -4 12 C-2.68 12 -1.36 12 0 12 C0 12.66 0 13.32 0 14 C0.66 14 1.32 14 2 14 C2 13.01 2 12.02 2 11 C2.94875 11.20625 3.8975 11.4125 4.875 11.625 C5.90625 11.74875 6.9375 11.8725 8 12 C10.6855594 9.3144406 11.06049974 6.62378672 12 3 C12.309375 3.86625 12.309375 3.86625 12.625 4.75 C14.48481665 7.79333634 17.04544187 9.07311426 20 11 C20 11.66 20 12.32 20 13 C18.75347656 13.32871094 17.50695312 13.65742188 16.22265625 13.99609375 C-0.10608552 18.48399729 -14.204065 24.70358863 -27 36 C-28.06109526 36.83512127 -29.12341884 37.66868659 -30.1875 38.5 C-33.80767998 41.71793776 -36.89156287 45.2937865 -40 49 C-41.95216435 47.04783565 -42.84826645 45.46800047 -44 43 C-42.68 42.34 -41.36 41.68 -40 41 C-40.66 40.01 -41.32 39.02 -42 38 C-40.03177114 36.03177114 -36.65191291 36.33751619 -34 36 C-34.33 34.68 -34.66 33.36 -35 32 C-34.505 32.495 -34.505 32.495 -34 33 C-34.33 33.99 -34.66 34.98 -35 36 C-36.65 35.67 -38.3 35.34 -40 35 C-39.67 33.68 -39.34 32.36 -39 31 C-39.66 31.33 -40.32 31.66 -41 32 C-41.65555119 34.52733235 -41.65555119 34.52733235 -42 37 C-43.485 37.495 -43.485 37.495 -45 38 C-44.01 38.99 -43.02 39.98 -42 41 C-44.31 40.67 -46.62 40.34 -49 40 C-48.34 41.65 -47.68 43.3 -47 45 C-48.65 44.67 -50.3 44.34 -52 44 C-52.33 44.66 -52.66 45.32 -53 46 C-55.5625 46.625 -55.5625 46.625 -58 47 C-58 38.63325664 -48.76993065 31.54104799 -43.125 25.8125 C-37.80345903 20.52610791 -32.4480281 15.88608836 -26 12 C-24.88625 11.32324219 -23.7725 10.64648438 -22.625 9.94921875 C-5.90232772 0 -5.90232772 0 0 0 Z " fill="#F7F4A0" transform="translate(84,12)"/>
<path d="M0 0 C4.00110825 -0.07455481 7.99886056 -0.0471469 12 0 C13.269646 0.00870117 13.269646 0.00870117 14.56494141 0.01757812 C17.37779592 0.04735954 20.18796694 0.11426871 23 0.1875 C23.91998779 0.19322021 24.83997559 0.19894043 25.7878418 0.20483398 C32.45141801 0.42648247 32.45141801 0.42648247 35.40625 3.515625 C35.9321875 4.33546875 36.458125 5.1553125 37 6 C40.5 6.75 40.5 6.75 44 6 C44.5662207 5.33645508 45.13244141 4.67291016 45.71582031 3.98925781 C48.95413343 1.16905951 51.96237124 1.49617732 56.046875 1.609375 C57.20367767 1.61786469 57.20367767 1.61786469 58.3838501 1.62652588 C60.83987279 1.64886411 63.29442055 1.69905237 65.75 1.75 C67.41794763 1.77006846 69.08591821 1.78831863 70.75390625 1.8046875 C74.83650323 1.84872008 78.91800181 1.91772717 83 2 C74.20898855 11.23272848 59.85450526 16.42232639 47.34765625 17.23828125 C29.17102059 17.58889656 13.93421047 12.90213811 0 1 C0 0.67 0 0.34 0 0 Z " fill="#251655" transform="translate(78,167)"/>
<path d="M0 0 C0.66 0.33 1.32 0.66 2 1 C1.67 2.32 1.34 3.64 1 5 C2.65 4.67 4.3 4.34 6 4 C5.01 4.495 5.01 4.495 4 5 C4 6.32 4 7.64 4 9 C5.65 9 7.3 9 9 9 C9 8.34 9 7.68 9 7 C15.04771734 7.0669489 15.04771734 7.0669489 17.45068359 9.42138672 C18.8197951 11.37345452 20.01893426 13.35913909 21.1875 15.4375 C21.61530762 16.16090576 22.04311523 16.88431152 22.48388672 17.62963867 C30 30.5942839 30 30.5942839 30 37 C28.28987752 39.25016115 27.06202512 39.97784817 24.375 40.9375 C21.80875315 41.7498001 21.80875315 41.7498001 21.1875 44.125 C21.0946875 45.053125 21.0946875 45.053125 21 46 C24.465 45.505 24.465 45.505 28 45 C27.67 45.66 27.34 46.32 27 47 C24.49609375 47.6328125 24.49609375 47.6328125 21.4375 48.125 C19.91962891 48.37636719 19.91962891 48.37636719 18.37109375 48.6328125 C17.19740234 48.81457031 17.19740234 48.81457031 16 49 C15.58041016 47.81857422 15.58041016 47.81857422 15.15234375 46.61328125 C11.36876899 36.33315047 7.10594512 26.47028337 -0.0625 18.0625 C-1.8203125 15.9453125 -1.8203125 15.9453125 -3 14 C-2.4375 10.4375 -2.4375 10.4375 -1 8 C-1.66 8 -2.32 8 -3 8 C-1.125 2.25 -1.125 2.25 0 0 Z " fill="#E6E39A" transform="translate(196,44)"/>
<path d="M0 0 C0.78890625 0.13921875 1.5778125 0.2784375 2.390625 0.421875 C3.18984375 0.55078125 3.9890625 0.6796875 4.8125 0.8125 C5.41578125 0.93109375 6.0190625 1.0496875 6.640625 1.171875 C6.640625 1.831875 6.640625 2.491875 6.640625 3.171875 C4.990625 3.501875 3.340625 3.831875 1.640625 4.171875 C1.640625 4.831875 1.640625 5.491875 1.640625 6.171875 C3.290625 6.171875 4.940625 6.171875 6.640625 6.171875 C6.640625 6.831875 6.640625 7.491875 6.640625 8.171875 C5.650625 8.171875 4.660625 8.171875 3.640625 8.171875 C3.970625 10.481875 4.300625 12.791875 4.640625 15.171875 C2.990625 16.161875 1.340625 17.151875 -0.359375 18.171875 C0.630625 18.831875 1.620625 19.491875 2.640625 20.171875 C0.660625 20.831875 -1.319375 21.491875 -3.359375 22.171875 C-2.039375 23.491875 -0.719375 24.811875 0.640625 26.171875 C-0.679375 26.171875 -1.999375 26.171875 -3.359375 26.171875 C-3.359375 27.161875 -3.359375 28.151875 -3.359375 29.171875 C-2.699375 29.171875 -2.039375 29.171875 -1.359375 29.171875 C-1.359375 29.831875 -1.359375 30.491875 -1.359375 31.171875 C-2.349375 31.171875 -3.339375 31.171875 -4.359375 31.171875 C-4.689375 32.491875 -5.019375 33.811875 -5.359375 35.171875 C-4.699375 35.171875 -4.039375 35.171875 -3.359375 35.171875 C-3.359375 35.831875 -3.359375 36.491875 -3.359375 37.171875 C-4.019375 37.171875 -4.679375 37.171875 -5.359375 37.171875 C-5.606875 37.97625 -5.854375 38.780625 -6.109375 39.609375 C-7.359375 42.171875 -7.359375 42.171875 -9.484375 42.984375 C-10.103125 43.04625 -10.721875 43.108125 -11.359375 43.171875 C-11.029375 44.491875 -10.699375 45.811875 -10.359375 47.171875 C-11.349375 47.171875 -12.339375 47.171875 -13.359375 47.171875 C-13.029375 48.161875 -12.699375 49.151875 -12.359375 50.171875 C-13.679375 50.831875 -14.999375 51.491875 -16.359375 52.171875 C-16.029375 52.831875 -15.699375 53.491875 -15.359375 54.171875 C-20.03629808 52.69495192 -20.03629808 52.69495192 -21.671875 50.046875 C-21.89875 49.428125 -22.125625 48.809375 -22.359375 48.171875 C-20.379375 47.676875 -20.379375 47.676875 -18.359375 47.171875 C-18.854375 45.686875 -18.854375 45.686875 -19.359375 44.171875 C-21.009375 45.161875 -22.659375 46.151875 -24.359375 47.171875 C-23.72197162 43.58751575 -22.20882505 41.22459969 -20.171875 38.234375 C-13.85236547 28.45726497 -9.90393799 18.68601084 -7.4140625 7.38671875 C-6.06449979 3.27305167 -4.61257287 0.33601524 0 0 Z " fill="#E7E49A" transform="translate(220.359375,133.828125)"/>
<path d="M0 0 C4.3881965 2.41227312 7.95020915 5.40133228 11.6875 8.6875 C15.85666118 12.31107669 20.04087207 15.88551513 24.375 19.3125 C28.69469447 22.73106616 33.03018213 26.17433753 37 30 C37 30.33 37 30.66 37 31 C27.76 31 18.52 31 9 31 C2.22077922 17.44155844 2.22077922 17.44155844 1.125 12.125 C0.90070312 11.09632813 0.67640625 10.06765625 0.4453125 9.0078125 C-0.00609519 5.95883073 -0.08267777 3.07745019 0 0 Z " fill="#231556" transform="translate(57,122)"/>
<path d="M0 0 C7.1969185 2.83843984 13.14394787 8.09225681 19 13 C19.61746094 13.48210938 20.23492187 13.96421875 20.87109375 14.4609375 C26.41817573 18.89347876 30.63485591 24.43716331 35 30 C34.34 30.66 33.68 31.32 33 32 C31.68 31.34 30.36 30.68 29 30 C29 30.66 29 31.32 29 32 C27.35 32 25.7 32 24 32 C23.67 30.68 23.34 29.36 23 28 C21.68 28.33 20.36 28.66 19 29 C19.66 27.35 20.32 25.7 21 24 C19.08895362 25.91104638 18.17661659 28.59560958 17 31 C17.66 31 18.32 31 19 31 C18.67 32.32 18.34 33.64 18 35 C17.01 35 16.02 35 15 35 C13.62517293 33.36739286 12.29352333 31.69774938 11 30 C10.01 29.34 9.02 28.68 8 28 C8.33 26.35 8.66 24.7 9 23 C10.65 22.67 12.3 22.34 14 22 C14 20.02 14 18.04 14 16 C9.94568308 14.84162374 7.78187881 15.16308743 4 17 C4.33 15.68 4.66 14.36 5 13 C4.01 13.495 4.01 13.495 3 14 C2.67 12.02 2.34 10.04 2 8 C1.34 8.66 0.68 9.32 0 10 C-1.5625 7.1875 -1.5625 7.1875 -3 4 C-2.67 3.01 -2.34 2.02 -2 1 C-1.34 0.67 -0.68 0.34 0 0 Z " fill="#F8F5A0" transform="translate(176,21)"/>
<path d="M0 0 C0.99 0.33 1.98 0.66 3 1 C3.5625 2.9375 3.5625 2.9375 4 5 C4.66 5.66 5.32 6.32 6 7 C6.66 6.67 7.32 6.34 8 6 C8.33 7.98 8.66 9.96 9 12 C9.99 11.01 10.98 10.02 12 9 C11.34 10.98 10.68 12.96 10 15 C10.556875 14.649375 11.11375 14.29875 11.6875 13.9375 C14.53886783 12.78154007 16.08517222 13.19032562 19 14 C19.6875 16.3125 19.6875 16.3125 20 19 C18.75 20.8125 18.75 20.8125 17 22 C16.01 22 15.02 22 14 22 C13.67 23.32 13.34 24.64 13 26 C12.52691406 25.63648437 12.05382812 25.27296875 11.56640625 24.8984375 C10.90511719 24.39570312 10.24382812 23.89296875 9.5625 23.375 C8.840625 22.82070313 8.11875 22.26640625 7.375 21.6953125 C5.03801758 19.9587524 5.03801758 19.9587524 2.5 18.6171875 C-3.59264798 15.19983687 -3.59264798 15.19983687 -4.859375 11.46875 C-5.1734945 8.86604553 -5.35055464 6.59877842 -5 4 C-4.34 3.34 -3.68 2.68 -3 2 C-2.01 2 -1.02 2 0 2 C0 1.34 0 0.68 0 0 Z " fill="#CAC78F" transform="translate(171,22)"/>
<path d="M0 0 C0.99 0.33 1.98 0.66 3 1 C2.01 1.66 1.02 2.32 0 3 C0 3.99 0 4.98 0 6 C1.32 6 2.64 6 4 6 C4.33 5.34 4.66 4.68 5 4 C4.01 4.33 3.02 4.66 2 5 C2 4.34 2 3.68 2 3 C2.99 2.67 3.98 2.34 5 2 C5.38218767 3.65614657 5.71395102 5.32457024 6 7 C4.03177114 8.96822886 0.65191291 8.66248381 -2 9 C-1.34 10.32 -0.68 11.64 0 13 C-1.98 13.99 -1.98 13.99 -4 15 C-3.01 16.65 -2.02 18.3 -1 20 C-2.04269514 21.82396528 -3.10994205 23.63391153 -4.1875 25.4375 C-5.07501953 26.95150391 -5.07501953 26.95150391 -5.98046875 28.49609375 C-8 31 -8 31 -10.61328125 31.80078125 C-11.40089844 31.86652344 -12.18851563 31.93226562 -13 32 C-13.66 32.2475 -14.32 32.495 -15 32.75 C-18.00446837 33.12555855 -19.5916543 31.67246229 -22 30 C-21.34 29.67 -20.68 29.34 -20 29 C-17.375 29.9375 -17.375 29.9375 -15 31 C-14.67 30.01 -14.34 29.02 -14 28 C-14.804375 27.731875 -15.60875 27.46375 -16.4375 27.1875 C-17.283125 26.795625 -18.12875 26.40375 -19 26 C-19.33 25.01 -19.66 24.02 -20 23 C-18.35 23 -16.7 23 -15 23 C-15.20625 22.443125 -15.4125 21.88625 -15.625 21.3125 C-16.10695211 18.340462 -15.26565028 16.68020059 -14 14 C-12.02 14.66 -10.04 15.32 -8 16 C-8.66 14.35 -9.32 12.7 -10 11 C-8.02 11 -6.04 11 -4 11 C-4.99 10.34 -5.98 9.68 -7 9 C-6.67 8.34 -6.34 7.68 -6 7 C-5.34 7.33 -4.68 7.66 -4 8 C-3.71125 7.05125 -3.4225 6.1025 -3.125 5.125 C-2 2 -2 2 0 0 Z " fill="#C1BD8C" transform="translate(45,41)"/>
<path d="M0 0 C0.79921875 0.12890625 1.5984375 0.2578125 2.421875 0.390625 C3.02515625 0.50921875 3.6284375 0.6278125 4.25 0.75 C4.25 1.41 4.25 2.07 4.25 2.75 C2.6 3.08 0.95 3.41 -0.75 3.75 C-0.75 4.41 -0.75 5.07 -0.75 5.75 C0.9 5.75 2.55 5.75 4.25 5.75 C4.25 6.41 4.25 7.07 4.25 7.75 C3.26 7.75 2.27 7.75 1.25 7.75 C1.58 10.06 1.91 12.37 2.25 14.75 C-0.225 16.235 -0.225 16.235 -2.75 17.75 C-1.76 18.41 -0.77 19.07 0.25 19.75 C-1.73 20.41 -3.71 21.07 -5.75 21.75 C-4.43 23.07 -3.11 24.39 -1.75 25.75 C-9.78571429 25.08035714 -9.78571429 25.08035714 -13.75 21.75 C-13.01655595 18.82824746 -12.26418113 15.91371985 -11.5 13 C-11.29503906 12.175 -11.09007812 11.35 -10.87890625 10.5 C-9.2239304 4.28130285 -7.53299042 -1.32935125 0 0 Z " fill="#BEBA8A" transform="translate(222.75,134.25)"/>
<path d="M0 0 C0.66 0.33 1.32 0.66 2 1 C1.67 2.32 1.34 3.64 1 5 C2.65 4.67 4.3 4.34 6 4 C5.01 4.495 5.01 4.495 4 5 C4 6.32 4 7.64 4 9 C5.65 9 7.3 9 9 9 C9 8.34 9 7.68 9 7 C12.3125 7.1875 12.3125 7.1875 16 8 C17.9375 10.5625 17.9375 10.5625 19 13 C16.4375761 15.83696932 14.79601204 17.36733133 11 18 C10.34 18.33 9.68 18.66 9 19 C9.66 19.33 10.32 19.66 11 20 C10.67 21.32 10.34 22.64 10 24 C8.35 24.33 6.7 24.66 5 25 C3.60024846 23.31188762 2.23086619 21.59855872 0.875 19.875 C0.10929688 18.92367187 -0.65640625 17.97234375 -1.4453125 16.9921875 C-3 14 -3 14 -2.2421875 10.6328125 C-1.83226562 9.76398437 -1.42234375 8.89515625 -1 8 C-1.66 8 -2.32 8 -3 8 C-1.125 2.25 -1.125 2.25 0 0 Z " fill="#F2EF9F" transform="translate(196,44)"/>
<path d="M0 0 C2.475 0.99 2.475 0.99 5 2 C4.01 2.33 3.02 2.66 2 3 C0.77479736 6.00847418 0.77479736 6.00847418 0 9 C-0.763125 9.0825 -1.52625 9.165 -2.3125 9.25 C-5.1358843 9.73816412 -5.1358843 9.73816412 -6.5 12.0625 C-6.995 12.701875 -7.49 13.34125 -8 14 C-10.6875 14.25 -10.6875 14.25 -13 14 C-13.33 15.32 -13.66 16.64 -14 18 C-18.95 18.495 -18.95 18.495 -24 19 C-23.43260132 23.12973628 -23.43260132 23.12973628 -22 27 C-23.32 27.33 -24.64 27.66 -26 28 C-26.33 25.36 -26.66 22.72 -27 20 C-27.33 21.32 -27.66 22.64 -28 24 C-29.32 23.34 -30.64 22.68 -32 22 C-32 21.34 -32 20.68 -32 20 C-32.66 19.67 -33.32 19.34 -34 19 C-31.62687152 15.44030727 -30.79941595 15.41549294 -26.8125 14.3125 C-21.57603329 12.67452309 -16.88043741 10.58118662 -12.0625 8 C-11.43641846 7.66782471 -10.81033691 7.33564941 -10.1652832 6.9934082 C-6.47029727 4.97394578 -3.20642401 2.72576462 0 0 Z " fill="#F4F19E" transform="translate(178,196)"/>
<path d="M0 0 C2.50449857 2.99557672 3.62703614 5.57242503 4.6875 9.3125 C6.3295987 14.47972178 8.43979719 19.11865179 11 23.875 C11.33217529 24.49286377 11.66435059 25.11072754 12.0065918 25.74731445 C14.1495313 29.6461056 16.48898147 33.33436134 19 37 C17.68 37.66 16.36 38.32 15 39 C12 35.25 12 35.25 12 33 C10.35 33.99 8.7 34.98 7 36 C6.34 35.34 5.68 34.68 5 34 C6.32 33.34 7.64 32.68 9 32 C7.84826645 29.53199953 6.95216435 27.95216435 5 26 C4.62975353 24.67644175 4.3033692 23.34046858 4 22 C2.97990176 19.14044751 1.91003267 16.3020796 0.83984375 13.4609375 C0 11 0 11 0 9 C-2.31 9 -4.62 9 -7 9 C-6.21625 8.2575 -5.4325 7.515 -4.625 6.75 C-2.43495469 4.45566682 -1.17268614 2.87841142 0 0 Z " fill="#F6F39F" transform="translate(25,142)"/>
<path d="M0 0 C0.81674796 1.74802146 1.62823451 3.49850189 2.4375 5.25 C3.11619141 6.71179688 3.11619141 6.71179688 3.80859375 8.203125 C5 11 5 11 5.53515625 13.234375 C5.90484745 15.24069875 5.90484745 15.24069875 8 17 C8 17.99 8 18.98 8 20 C6 21.6875 6 21.6875 4 23 C2.68 22.34 1.36 21.68 0 21 C0 19.35 0 17.7 0 16 C-0.66 16 -1.32 16 -2 16 C-2 14.35 -2 12.7 -2 11 C-2.99 10.67 -3.98 10.34 -5 10 C-8 4.77777778 -8 4.77777778 -8 2 C-5.09399739 0.74335022 -3.20395416 0 0 0 Z " fill="#6F6D6F" transform="translate(26,154)"/>
<path d="M0 0 C1.41805831 0.28482368 2.83440379 0.57818144 4.25 0.875 C5.03890625 1.03742188 5.8278125 1.19984375 6.640625 1.3671875 C8.96831144 1.99150075 10.89031952 2.84838542 13 4 C12.01 4.66 11.02 5.32 10 6 C9.62599214 8.32716 9.29235267 10.66117862 9 13 C8.34 13.66 7.68 14.32 7 15 C6.67 13.68 6.34 12.36 6 11 C5.34 11 4.68 11 4 11 C4 11.66 4 12.32 4 13 C2.35 12.67 0.7 12.34 -1 12 C-1 11.01 -1 10.02 -1 9 C-2.65 9.33 -4.3 9.66 -6 10 C-4.34832443 6.4213696 -2.21713508 3.25179812 0 0 Z " fill="#F2EF9E" transform="translate(81,209)"/>
<path d="M0 0 C2.97 0.495 2.97 0.495 6 1 C6 1.66 6 2.32 6 3 C7.32 3 8.64 3 10 3 C10 3.99 10 4.98 10 6 C10.99 6.33 11.98 6.66 13 7 C13 6.34 13 5.68 13 5 C13.66 5.33 14.32 5.66 15 6 C14.21039657 9.80445287 13.65947763 12.34052237 10.875 15.125 C6.65518849 16.40929046 3.85136091 14.86356173 0 13 C0.66 11.35 1.32 9.7 2 8 C1.34 8 0.68 8 0 8 C0.66 5.69 1.32 3.38 2 1 C1.34 0.67 0.68 0.34 0 0 Z " fill="#D1CF91" transform="translate(150,16)"/>
<path d="M0 0 C3.3 0.33 6.6 0.66 10 1 C9.01 2.32 8.02 3.64 7 5 C7.66 5.33 8.32 5.66 9 6 C8.67 7.32 8.34 8.64 8 10 C6.68 10 5.36 10 4 10 C4 10.99 4 11.98 4 13 C3.34 13 2.68 13 2 13 C1.67 12.34 1.34 11.68 1 11 C-0.65 11.33 -2.3 11.66 -4 12 C-4.66 10.68 -5.32 9.36 -6 8 C-5.34 8 -4.68 8 -4 8 C-4.33 6.68 -4.66 5.36 -5 4 C-4.0409375 3.8453125 -4.0409375 3.8453125 -3.0625 3.6875 C-2.381875 3.460625 -1.70125 3.23375 -1 3 C-0.67 2.01 -0.34 1.02 0 0 Z " fill="#AFAB83" transform="translate(98,214)"/>
<path d="M0 0 C3.465 1.98 3.465 1.98 7 4 C7 4.66 7 5.32 7 6 C6.34 6 5.68 6 5 6 C5.33 7.98 5.66 9.96 6 12 C4.25 13.125 4.25 13.125 2 14 C-0.25 13.125 -0.25 13.125 -2 12 C-2.66 12.66 -3.32 13.32 -4 14 C-5.9375 13.9375 -5.9375 13.9375 -8 13 C-9.75 10.4375 -9.75 10.4375 -11 8 C-9 6 -9 6 -6.5625 5.6875 C-3.60720543 6.04790178 -2.81112073 6.71226855 -1 9 C-1.020625 7.700625 -1.04125 6.40125 -1.0625 5.0625 C-1.08399454 3.70834367 -1.07148199 2.35243917 -1 1 C-0.67 0.67 -0.34 0.34 0 0 Z " fill="#DFDC98" transform="translate(63,27)"/>
<path d="M0 0 C0.66 0.33 1.32 0.66 2 1 C1.67 2.32 1.34 3.64 1 5 C2.65 4.67 4.3 4.34 6 4 C5.01 4.495 5.01 4.495 4 5 C4 6.32 4 7.64 4 9 C5.65 9 7.3 9 9 9 C9 8.34 9 7.68 9 7 C9.99 7 10.98 7 12 7 C10.77036367 10.68890899 8.96316797 13.64361605 7 17 C5.02 17 3.04 17 1 17 C1 16.34 1 15.68 1 15 C-0.32 14.67 -1.64 14.34 -3 14 C-2.34 12.02 -1.68 10.04 -1 8 C-1.66 8 -2.32 8 -3 8 C-1.125 2.25 -1.125 2.25 0 0 Z " fill="#EFECA0" transform="translate(196,44)"/>
<path d="M0 0 C-0.99 0.33 -1.98 0.66 -3 1 C-1.35 2.65 0.3 4.3 2 6 C1.67 4.68 1.34 3.36 1 2 C1.66 2 2.32 2 3 2 C3.33 4.64 3.66 7.28 4 10 C2.35 9.01 0.7 8.02 -1 7 C-0.67 8.32 -0.34 9.64 0 11 C-1 11 -2 11 -3 11 C-3.99 11.495 -3.99 11.495 -5 12 C-7.125 11.5625 -7.125 11.5625 -9 11 C-9 11.66 -9 12.32 -9 13 C-9.66 13 -10.32 13 -11 13 C-10.125 5.375 -10.125 5.375 -9 2 C-9.33 1.34 -9.66 0.68 -10 0 C-6.33694766 -0.74926071 -3.57644848 -1.2380014 0 0 Z " fill="#F1EE9D" transform="translate(148,214)"/>
<path d="M0 0 C3.875 0.875 3.875 0.875 5 2 C5.1875 4.4375 5.1875 4.4375 5 7 C3 9 3 9 -0.125 9.125 C-1.07375 9.08375 -2.0225 9.0425 -3 9 C-3.33 10.32 -3.66 11.64 -4 13 C-8.875 12.125 -8.875 12.125 -10 11 C-10.125 8.5 -10.125 8.5 -10 6 C-9.67 5.67 -9.34 5.34 -9 5 C-8.236875 5.0825 -7.47375 5.165 -6.6875 5.25 C-3.74031844 5.27766299 -3.74031844 5.27766299 -1.6875 2.5 C-1.130625 1.675 -0.57375 0.85 0 0 Z " fill="#3A3657" transform="translate(174,204)"/>
<path d="M0 0 C3.465 1.485 3.465 1.485 7 3 C6.14285714 11.57142857 6.14285714 11.57142857 4 15 C3.34 15 2.68 15 2 15 C2 13.68 2 12.36 2 11 C0.02 11.99 0.02 11.99 -2 13 C-1.34 10.69 -0.68 8.38 0 6 C-1.32 6 -2.64 6 -4 6 C-4.33 7.32 -4.66 8.64 -5 10 C-5.66 10 -6.32 10 -7 10 C-6.1875 6.5625 -6.1875 6.5625 -5 3 C-2 2 -2 2 0 2 C0 1.34 0 0.68 0 0 Z " fill="#B2AF87" transform="translate(69,202)"/>
<path d="M0 0 C1.625 2.5 1.625 2.5 3 5 C4.32 4.67 5.64 4.34 7 4 C9.475 6.97 9.475 6.97 12 10 C11.01 10.66 10.02 11.32 9 12 C9 12.66 9 13.32 9 14 C6.36 14.66 3.72 15.32 1 16 C2.32 13.36 3.64 10.72 5 8 C4.071875 8.165 3.14375 8.33 2.1875 8.5 C-1 9 -1 9 -4 9 C-3.01 7.35 -2.02 5.7 -1 4 C-2.98 4.66 -4.96 5.32 -7 6 C-5.81636731 2.44910192 -3.99368042 0 0 0 Z " fill="#B3B085" transform="translate(37,175)"/>
<path d="M0 0 C2 3.75 2 3.75 2 6 C3.65 6.33 5.3 6.66 7 7 C6.67 7.99 6.34 8.98 6 10 C0.59707606 10.11026375 -4.69841807 10.19015105 -10 9 C-10.66 8.01 -11.32 7.02 -12 6 C-8.55930376 3.70620251 -7.27709699 3 -3 3 C-2.67 3.66 -2.34 4.32 -2 5 C-1.34 3.35 -0.68 1.7 0 0 Z " fill="#FAF7A0" transform="translate(134,15)"/>
<path d="M0 0 C2.4375 0.75 2.4375 0.75 5 2 C5.6875 4 5.6875 4 6 6 C6.66 6.66 7.32 7.32 8 8 C8 8.99 8 9.98 8 11 C6 12.6875 6 12.6875 4 14 C2.0625 13.375 2.0625 13.375 0 12 C-1.25564319 7.75013074 -0.91996675 4.29317818 0 0 Z " fill="#C7C593" transform="translate(26,163)"/>
<path d="M0 0 C4.44355888 0.02987266 7.96999406 0.17957355 12.01171875 2.265625 C11.35171875 5.235625 10.69171875 8.205625 10.01171875 11.265625 C9.35171875 10.935625 8.69171875 10.605625 8.01171875 10.265625 C7.38671875 7.703125 7.38671875 7.703125 7.01171875 5.265625 C4.57454617 5.53597134 4.57454617 5.53597134 2.01171875 6.265625 C1.02171875 7.750625 1.02171875 7.750625 0.01171875 9.265625 C-0.31828125 8.605625 -0.64828125 7.945625 -0.98828125 7.265625 C-0.65828125 6.275625 -0.32828125 5.285625 0.01171875 4.265625 C-1.30828125 3.605625 -2.62828125 2.945625 -3.98828125 2.265625 C-1.98828125 0.265625 -1.98828125 0.265625 0 0 Z " fill="#F9F7A3" transform="translate(106.98828125,215.734375)"/>
<path d="M0 0 C4.62 0 9.24 0 14 0 C13.01 0.495 13.01 0.495 12 1 C12 3.31 12 5.62 12 8 C11.67 8 11.34 8 11 8 C11 6.02 11 4.04 11 2 C9.68 2 8.36 2 7 2 C7 4.31 7 6.62 7 9 C5 9 5 9 2.875 7 C2.25625 6.34 1.6375 5.68 1 5 C0.67 5.99 0.34 6.98 0 8 C0 5.36 0 2.72 0 0 Z " fill="#504E61" transform="translate(118,220)"/>
<path d="M0 0 C2.62901288 1.52206009 4.84365964 2.84365964 7 5 C6.625 7.625 6.625 7.625 6 10 C2.18759068 9.48480955 0.6205882 8.73970585 -2 6 C-2.99 6 -3.98 6 -5 6 C-5 5.34 -5 4.68 -5 4 C-4.0409375 3.8453125 -4.0409375 3.8453125 -3.0625 3.6875 C-2.381875 3.460625 -1.70125 3.23375 -1 3 C-0.67 2.01 -0.34 1.02 0 0 Z " fill="#FEFBA3" transform="translate(194,184)"/>
<path d="M0 0 C0.99 0.33 1.98 0.66 3 1 C2.01 1.66 1.02 2.32 0 3 C0 3.99 0 4.98 0 6 C1.32 6 2.64 6 4 6 C4.33 5.34 4.66 4.68 5 4 C4.01 4.33 3.02 4.66 2 5 C2 4.34 2 3.68 2 3 C2.99 2.67 3.98 2.34 5 2 C5.38218767 3.65614657 5.71395102 5.32457024 6 7 C4.03177114 8.96822886 0.65191291 8.66248381 -2 9 C-1.34 10.32 -0.68 11.64 0 13 C-3.05847848 13.54372951 -5.88772805 14 -9 14 C-9.33 13.01 -9.66 12.02 -10 11 C-8.02 11 -6.04 11 -4 11 C-4.99 10.34 -5.98 9.68 -7 9 C-6.67 8.34 -6.34 7.68 -6 7 C-5.34 7.33 -4.68 7.66 -4 8 C-3.71125 7.05125 -3.4225 6.1025 -3.125 5.125 C-2 2 -2 2 0 0 Z " fill="#46445D" transform="translate(45,41)"/>
<path d="M0 0 C-0.33 1.32 -0.66 2.64 -1 4 C-0.01 4 0.98 4 2 4 C1.67 5.98 1.34 7.96 1 10 C-1.31 10.33 -3.62 10.66 -6 11 C-5.34 10.67 -4.68 10.34 -4 10 C-4 9.01 -4 8.02 -4 7 C-4.99 7 -5.98 7 -7 7 C-6.34 5.68 -5.68 4.36 -5 3 C-5.99 2.34 -6.98 1.68 -8 1 C-5.07175348 0.02391783 -3.04386724 -0.08226668 0 0 Z " fill="#A9A786" transform="translate(21,135)"/>
<path d="M0 0 C0.99 0.33 1.98 0.66 3 1 C3.125 4.375 3.125 4.375 3 8 C1 10 1 10 -1.5625 10.1875 C-4 10 -4 10 -5 9 C-5.1875 6.5625 -5.1875 6.5625 -5 4 C-4.34 3.34 -3.68 2.68 -3 2 C-2.01 2 -1.02 2 0 2 C0 1.34 0 0.68 0 0 Z " fill="#2B2953" transform="translate(171,22)"/>
<path d="M0 0 C2.625 0.375 2.625 0.375 5 1 C5.6875 3.75 5.6875 3.75 6 7 C4.5625 9.375 4.5625 9.375 3 11 C3 10.34 3 9.68 3 9 C2.360625 8.855625 1.72125 8.71125 1.0625 8.5625 C-1 8 -1 8 -2 7 C-2.1875 4.5625 -2.1875 4.5625 -2 2 C-1.34 1.34 -0.68 0.68 0 0 Z " fill="#332F56" transform="translate(89,15)"/>
<path d="M0 0 C5.72173913 3.40869565 5.72173913 3.40869565 7 6.125 C7 6.74375 7 7.3625 7 8 C5 10 5 10 2.5 10.25 C0 10 0 10 -2 8 C-1.63723355 5.17042171 -0.90305236 2.70915709 0 0 Z " fill="#2E2B55" transform="translate(31,55)"/>
<path d="M0 0 C2.625 0.375 2.625 0.375 5 1 C5.6875 3.3125 5.6875 3.3125 6 6 C4.8125 7.875 4.8125 7.875 3 9 C0.86254078 8.74853421 -0.45925779 8.54074221 -2 7 C-2.1875 4.5625 -2.1875 4.5625 -2 2 C-1.34 1.34 -0.68 0.68 0 0 Z " fill="#7F7D73" transform="translate(185,35)"/>
<path d="M0 0 C2.6875 1.9375 2.6875 1.9375 5 4 C4.0022242 6.99332739 3.2477975 7.94766315 1 10 C-1.62187494 8.95125002 -2.79371361 8.35068687 -4.25 5.875 C-4.4975 5.25625 -4.745 4.6375 -5 4 C-3 1 -3 1 0 0 Z " fill="#847F77" transform="translate(183,198)"/>
<path d="M0 0 C0.33 0.99 0.66 1.98 1 3 C-2.96 4.32 -6.92 5.64 -11 7 C-11.99 5.68 -12.98 4.36 -14 3 C-4.58997722 -0.44419134 -4.58997722 -0.44419134 0 0 Z " fill="#211656" transform="translate(94,131)"/>
<path d="M0 0 C0.66 1.32 1.32 2.64 2 4 C0.35 4 -1.3 4 -3 4 C-2.484375 4.598125 -1.96875 5.19625 -1.4375 5.8125 C-0.963125 6.534375 -0.48875 7.25625 0 8 C-0.33 8.99 -0.66 9.98 -1 11 C-1.61875 10.525625 -2.2375 10.05125 -2.875 9.5625 C-4.90705546 7.97582559 -4.90705546 7.97582559 -7 7 C-7.99 7.99 -8.98 8.98 -10 10 C-10.66 9.67 -11.32 9.34 -12 9 C-11.0919838 7.86800647 -10.17316174 6.74467637 -9.25 5.625 C-8.73953125 4.99851563 -8.2290625 4.37203125 -7.703125 3.7265625 C-5.40193949 1.3937093 -3.32507703 0 0 0 Z " fill="#FAF8A2" transform="translate(201,178)"/>
<path d="M0 0 C2.97 0.495 2.97 0.495 6 1 C6.04254356 2.99954746 6.04080783 5.00041636 6 7 C5 8 5 8 1.9375 8.0625 C0.968125 8.041875 -0.00125 8.02125 -1 8 C-1.625 5.6875 -1.625 5.6875 -2 3 C-1.34 2.01 -0.68 1.02 0 0 Z " fill="#1F194D" transform="translate(137,13)"/>
<path d="M0 0 C1.67542976 0.28604898 3.34385343 0.61781233 5 1 C4.67 1.99 4.34 2.98 4 4 C4.66 4 5.32 4 6 4 C5.67 5.65 5.34 7.3 5 9 C0.25 8.25 0.25 8.25 -2 6 C-1.44444444 1.44444444 -1.44444444 1.44444444 0 0 Z " fill="#8C8979" transform="translate(99,13)"/>
<path d="M0 0 C2.625 0.375 2.625 0.375 5 1 C5 3.31 5 5.62 5 8 C2.625 8.625 2.625 8.625 0 9 C-2 7 -2 7 -2.25 4.5 C-2 2 -2 2 0 0 Z " fill="#817F75" transform="translate(113,11)"/>
<path d="M0 0 C2.625 0.375 2.625 0.375 5 1 C5.625 3.375 5.625 3.375 6 6 C5.34 6.66 4.68 7.32 4 8 C1.375 7.625 1.375 7.625 -1 7 C-1.625 4.625 -1.625 4.625 -2 2 C-1.34 1.34 -0.68 0.68 0 0 Z " fill="#332E52" transform="translate(110,220)"/>
<path d="M0 0 C3.5 0.3125 3.5 0.3125 7 1 C7.33 1.66 7.66 2.32 8 3 C7.01 3.495 7.01 3.495 6 4 C5.34786708 6.02463255 5.34786708 6.02463255 5 8 C0.125 7.125 0.125 7.125 -1 6 C-1.125 3.5 -1.125 3.5 -1 1 C-0.67 0.67 -0.34 0.34 0 0 Z " fill="#91907A" transform="translate(165,209)"/>
<path d="M0 0 C2.69082872 0.17635452 5.32851446 0.61835921 8 1 C7.01 1.33 6.02 1.66 5 2 C4.26676204 4.01508358 4.26676204 4.01508358 4 6 C4.66 6 5.32 6 6 6 C6 6.66 6 7.32 6 8 C5.34 8 4.68 8 4 8 C3.7525 8.804375 3.505 9.60875 3.25 10.4375 C2 13 2 13 0.0625 13.9375 C-2 14 -2 14 -5 12 C-4.67 10.68 -4.34 9.36 -4 8 C-3.67 8.99 -3.34 9.98 -3 11 C-1.68 10.67 -0.36 10.34 1 10 C1.77802187 7.6984589 1.77802187 7.6984589 2 5 C0.66846734 2.69495956 0.66846734 2.69495956 -1 1 C-0.67 0.67 -0.34 0.34 0 0 Z " fill="#4E4B61" transform="translate(211,163)"/>
<path d="M0 0 C1.1446875 0.3403125 1.1446875 0.3403125 2.3125 0.6875 C2.4375 3.0625 2.4375 3.0625 2.3125 5.6875 C1.6525 6.3475 0.9925 7.0075 0.3125 7.6875 C-2.3125 7.3125 -2.3125 7.3125 -4.6875 6.6875 C-5.375 4.875 -5.375 4.875 -5.6875 2.6875 C-3.97309355 -0.07459928 -3.26180423 -0.37927956 0 0 Z " fill="#242150" transform="translate(50.6875,193.3125)"/>
<path d="M0 0 C2.5625 0.1875 2.5625 0.1875 4.5625 2.1875 C4.1875 4.8125 4.1875 4.8125 3.5625 7.1875 C1.56295254 7.23004356 -0.43791636 7.22830783 -2.4375 7.1875 C-3.4375 6.1875 -3.4375 6.1875 -3.5625 3.6875 C-3.39599509 0.35740177 -3.31519894 0.2550153 0 0 Z " fill="#141248" transform="translate(220.4375,142.8125)"/>
<path d="M0 0 C1.2375 0.1546875 1.2375 0.1546875 2.5 0.3125 C4.5 3.3125 4.5 3.3125 4.125 5.5 C3.91875 6.098125 3.7125 6.69625 3.5 7.3125 C2.18 7.6425 0.86 7.9725 -0.5 8.3125 C-1.82 6.3325 -3.14 4.3525 -4.5 2.3125 C-2.5 0.3125 -2.5 0.3125 0 0 Z " fill="#110F4A" transform="translate(56.5,32.6875)"/>
<path d="M0 0 C2.14331139 2.14331139 2.514193 3.14086424 3.25 6 C3.44078125 6.70125 3.6315625 7.4025 3.828125 8.125 C3.88484375 8.74375 3.9415625 9.3625 4 10 C3.34 10.66 2.68 11.32 2 12 C-1.465 10.02 -1.465 10.02 -5 8 C-4.67 7.01 -4.34 6.02 -4 5 C-3.01 5 -2.02 5 -1 5 C-0.67 3.35 -0.34 1.7 0 0 Z " fill="#F8F49F" transform="translate(164,24)"/>
<path d="M0 0 C4.875 0.875 4.875 0.875 6 2 C6.04063832 3.66617115 6.042721 5.33388095 6 7 C4.35 7.33 2.7 7.66 1 8 C-0.42944945 5.64561267 -1.08661261 4.51967567 -0.625 1.75 C-0.41875 1.1725 -0.2125 0.595 0 0 Z " fill="#25214D" transform="translate(154,214)"/>
<path d="M0 0 C1.38938077 1.96147874 2.7260411 3.96166576 4 6 C3.67 6.66 3.34 7.32 3 8 C0.6859378 8.73075648 -1.64828869 9.40138258 -4 10 C-3.01 8.02 -2.02 6.04 -1 4 C-2.98 4.66 -4.96 5.32 -7 6 C-5.81636731 2.44910192 -3.99368042 0 0 0 Z " fill="#5C5866" transform="translate(37,175)"/>
<path d="M0 0 C2.88437779 1.29299694 4.87219421 2.65941363 7 5 C5.02 5.99 5.02 5.99 3 7 C3.33 7.66 3.66 8.32 4 9 C-0.67692308 7.52307692 -0.67692308 7.52307692 -2.3125 4.875 C-2.539375 4.25625 -2.76625 3.6375 -3 3 C-1.68 2.67 -0.36 2.34 1 2 C0.67 1.34 0.34 0.68 0 0 Z " fill="#4C495F" transform="translate(201,179)"/>
<path d="M0 0 C2.97 0 5.94 0 9 0 C8.67 1.32 8.34 2.64 8 4 C7.01 4.33 6.02 4.66 5 5 C5 5.66 5 6.32 5 7 C4.01 7.33 3.02 7.66 2 8 C2.33 6.02 2.66 4.04 3 2 C2.01 2 1.02 2 0 2 C0 1.34 0 0.68 0 0 Z " fill="#514C63" transform="translate(213,81)"/>
<path d="M0 0 C2.475 0.99 2.475 0.99 5 2 C4.42415568 4.38564077 3.77772405 6.66682784 3 9 C2.34 9 1.68 9 1 9 C1 7.68 1 6.36 1 5 C-0.98 5.99 -0.98 5.99 -3 7 C-1.125 2.25 -1.125 2.25 0 0 Z " fill="#524F62" transform="translate(70,208)"/>
<path d="M0 0 C0.99 0.33 1.98 0.66 3 1 C3 1.66 3 2.32 3 3 C4.32 2.67 5.64 2.34 7 2 C7 2.66 7 3.32 7 4 C5.68 4.33 4.36 4.66 3 5 C3.99 6.485 3.99 6.485 5 8 C0.25 7.125 0.25 7.125 -2 6 C-1.125 1.125 -1.125 1.125 0 0 Z " fill="#44415E" transform="translate(21,76)"/>
<path d="M0 0 C1.32 0.66 2.64 1.32 4 2 C4 2.99 4 3.98 4 5 C2 6.6875 2 6.6875 0 8 C-1.32 7.34 -2.64 6.68 -4 6 C-4 4.68 -4 3.36 -4 2 C-3.34 2 -2.68 2 -2 2 C-2 2.99 -2 3.98 -2 5 C-1.34 5.33 -0.68 5.66 0 6 C-0.2784375 4.7934375 -0.2784375 4.7934375 -0.5625 3.5625 C-0.706875 2.716875 -0.85125 1.87125 -1 1 C-0.67 0.67 -0.34 0.34 0 0 Z " fill="#545061" transform="translate(30,169)"/>
<path d="M0 0 C0 0.33 0 0.66 0 1 C-0.85722656 0.99097656 -1.71445313 0.98195312 -2.59765625 0.97265625 C-10.77990249 1.11178145 -10.77990249 1.11178145 -17.3125 5.5625 C-18.24207144 6.68113682 -19.15169737 7.81854579 -20 9 C-20.33 8.01 -20.66 7.02 -21 6 C-14.76047638 -1.13088413 -9.11435883 -0.68262882 0 0 Z " fill="#150B57" transform="translate(127,57)"/>
<path d="M0 0 C0.99 0.33 1.98 0.66 3 1 C3 3.64 3 6.28 3 9 C2.34 9 1.68 9 1 9 C1 8.01 1 7.02 1 6 C-0.65 6.33 -2.3 6.66 -4 7 C-2.79618552 4.50638429 -1.54571278 2.31856917 0 0 Z " fill="#555263" transform="translate(79,212)"/>
<path d="M0 0 C2.97 0.495 2.97 0.495 6 1 C5.67 2.32 5.34 3.64 5 5 C3.68 5 2.36 5 1 5 C1 5.99 1 6.98 1 8 C0.34 8 -0.32 8 -1 8 C-0.67 5.36 -0.34 2.72 0 0 Z " fill="#585564" transform="translate(101,219)"/>
<path d="M0 0 C1.8125 0.125 1.8125 0.125 4 1 C5.75 4.0625 5.75 4.0625 7 7 C4.03 6.505 4.03 6.505 1 6 C1 6.66 1 7.32 1 8 C0.34 8 -0.32 8 -1 8 C-0.67 5.36 -0.34 2.72 0 0 Z " fill="#4D4861" transform="translate(138,219)"/>
<path d="M0 0 C0.33 0.66 0.66 1.32 1 2 C1.99 2.33 2.98 2.66 4 3 C3.01 3.495 3.01 3.495 2 4 C2.33 5.65 2.66 7.3 3 9 C2.236875 8.835 1.47375 8.67 0.6875 8.5 C-2.03596236 7.90854604 -2.03596236 7.90854604 -5 8 C-4.54625 7.4225 -4.0925 6.845 -3.625 6.25 C-2.15886484 4.2199667 -1.05142216 2.26460157 0 0 Z " fill="#F8F7A5" transform="translate(188,188)"/>
<path d="M0 0 C0.33 0.66 0.66 1.32 1 2 C0.67 2.66 0.34 3.32 0 4 C0.66 4 1.32 4 2 4 C2.33 2.68 2.66 1.36 3 0 C4.32 0.33 5.64 0.66 7 1 C6.67 2.65 6.34 4.3 6 6 C3.69 5.67 1.38 5.34 -1 5 C-0.67 3.35 -0.34 1.7 0 0 Z " fill="#4F4E5F" transform="translate(221,127)"/>
<path d="M0 0 C0.99 0.33 1.98 0.66 3 1 C2.67 2.32 2.34 3.64 2 5 C2.99 5 3.98 5 5 5 C0.25 9 0.25 9 -2 9 C-1.67 7.35 -1.34 5.7 -1 4 C-1.99 3.67 -2.98 3.34 -4 3 C-2.1875 1.4375 -2.1875 1.4375 0 0 Z " fill="#302E55" transform="translate(208,60)"/>
<path d="M0 0 C2.31 0.66 4.62 1.32 7 2 C6.67 3.65 6.34 5.3 6 7 C2.63279613 5.60667426 1.0140476 4.0210714 -1 1 C-0.67 0.67 -0.34 0.34 0 0 Z " fill="#4E4C63" transform="translate(186,195)"/>
<path d="M0 0 C3.465 1.98 3.465 1.98 7 4 C6.67 4.66 6.34 5.32 6 6 C4.68 6 3.36 6 2 6 C1.67 6.99 1.34 7.98 1 9 C-1.09230769 4.56923077 -1.09230769 4.56923077 -0.625 1.6875 C-0.41875 1.130625 -0.2125 0.57375 0 0 Z " fill="#3E3B5B" transform="translate(63,27)"/>
<path d="M0 0 C0.66 0 1.32 0 2 0 C2.99 2.31 3.98 4.62 5 7 C4.34 7 3.68 7 3 7 C2.34 7.66 1.68 8.32 1 9 C1 8.34 1 7.68 1 7 C0.01 6.67 -0.98 6.34 -2 6 C-1.34 4.02 -0.68 2.04 0 0 Z " fill="#9E9B7F" transform="translate(69,24)"/>
<path d="M0 0 C0.99 1.32 1.98 2.64 3 4 C3.66 3.01 4.32 2.02 5 1 C4.25 6.75 4.25 6.75 2 9 C1.67 7.68 1.34 6.36 1 5 C0.34 5 -0.32 5 -1 5 C-1 5.66 -1 6.32 -1 7 C-1.66 6.67 -2.32 6.34 -3 6 C-2.01 4.02 -1.02 2.04 0 0 Z " fill="#312D56" transform="translate(86,215)"/>
<path d="M0 0 C0.66 0 1.32 0 2 0 C2.33 2.64 2.66 5.28 3 8 C1.35 7.01 -0.3 6.02 -2 5 C-1.67 6.32 -1.34 7.64 -1 9 C-1.66 9 -2.32 9 -3 9 C-3.33 6.36 -3.66 3.72 -4 1 C-2.35 1.99 -0.7 2.98 1 4 C0.67 2.68 0.34 1.36 0 0 Z " fill="#2B2853" transform="translate(149,216)"/>
<path d="M0 0 C0.99 0 1.98 0 3 0 C1.77036367 3.68890899 -0.03683203 6.64361605 -2 10 C-2.66 9.67 -3.32 9.34 -4 9 C-3.34 7.68 -2.68 6.36 -2 5 C-2.66 4.67 -3.32 4.34 -4 4 C-4.33 4.66 -4.66 5.32 -5 6 C-5.99 5.34 -6.98 4.68 -8 4 C-5.36 3.34 -2.72 2.68 0 2 C0 1.34 0 0.68 0 0 Z " fill="#322F56" transform="translate(205,51)"/>
<path d="M0 0 C0.99 0 1.98 0 3 0 C3.33 2.64 3.66 5.28 4 8 C3.67 7.34 3.34 6.68 3 6 C1.02 6.66 -0.96 7.32 -3 8 C-1.125 2.25 -1.125 2.25 0 0 Z " fill="#38345B" transform="translate(128,12)"/>
<path d="M0 0 C-1.485 1.98 -1.485 1.98 -3 4 C-2.01 4.66 -1.02 5.32 0 6 C-2.31 6.33 -4.62 6.66 -7 7 C-6.34 5.68 -5.68 4.36 -5 3 C-5.99 2.34 -6.98 1.68 -8 1 C-5.07175348 0.02391783 -3.04386724 -0.08226668 0 0 Z " fill="#221E4E" transform="translate(21,135)"/>
<path d="M0 0 C1.5625 1.75 1.5625 1.75 3 4 C2.6875 6.25 2.6875 6.25 2 8 C1.67 7.34 1.34 6.68 1 6 C0.34 6 -0.32 6 -1 6 C-1 7.32 -1 8.64 -1 10 C-1.66 10 -2.32 10 -3 10 C-3.66 7.36 -4.32 4.72 -5 2 C-2.525 2.99 -2.525 2.99 0 4 C0 2.68 0 1.36 0 0 Z " fill="#272351" transform="translate(82,18)"/>
<path d="M0 0 C2.0625 0.4375 2.0625 0.4375 4 1 C4.33 2.32 4.66 3.64 5 5 C3.35 5.33 1.7 5.66 0 6 C-0.38218767 4.34385343 -0.71395102 2.67542976 -1 1 C-0.67 0.67 -0.34 0.34 0 0 Z " fill="#CECB93" transform="translate(208,169)"/>
<path d="M0 0 C2.33944736 0.28730055 4.6739143 0.61936779 7 1 C6.67 1.99 6.34 2.98 6 4 C4.35 4.33 2.7 4.66 1 5 C0.34 3.68 -0.32 2.36 -1 1 C-0.67 0.67 -0.34 0.34 0 0 Z " fill="#FDFBA5" transform="translate(91,213)"/>
<path d="M0 0 C2.9375 0.8125 2.9375 0.8125 6 2 C6.33 2.99 6.66 3.98 7 5 C5.02 5.99 5.02 5.99 3 7 C1.68 5.35 0.36 3.7 -1 2 C-0.67 1.34 -0.34 0.68 0 0 Z " fill="#3F3B5A" transform="translate(179,201)"/>
<path d="M0 0 C1.65 1.32 3.3 2.64 5 4 C4.67 5.65 4.34 7.3 4 9 C1.625 8.75 1.625 8.75 -1 8 C-2.3125 5.9375 -2.3125 5.9375 -3 4 C-2.071875 4.7425 -2.071875 4.7425 -1.125 5.5 C0.83880904 7.19222773 0.83880904 7.19222773 3 7 C2.0022242 4.00667261 1.2477975 3.05233685 -1 1 C-0.67 0.67 -0.34 0.34 0 0 Z " fill="#292652" transform="translate(196,185)"/>
<path d="M0 0 C0.33 0.99 0.66 1.98 1 3 C1.99 3.33 2.98 3.66 4 4 C4 3.34 4 2.68 4 2 C4.66 2.33 5.32 2.66 6 3 C5.01 4.98 4.02 6.96 3 9 C2.67 8.34 2.34 7.68 2 7 C2.33 6.34 2.66 5.68 3 5 C1.68 5 0.36 5 -1 5 C-1 5.66 -1 6.32 -1 7 C-1.66 6.67 -2.32 6.34 -3 6 C-2.01 4.02 -1.02 2.04 0 0 Z " fill="#1D1A4E" transform="translate(159,19)"/>
<path d="M0 0 C1.98 0.495 1.98 0.495 4 1 C3.67 2.65 3.34 4.3 3 6 C1.68 5.67 0.36 5.34 -1 5 C-0.67 3.35 -0.34 1.7 0 0 Z " fill="#E2E09B" transform="translate(138,14)"/>
<path d="M0 0 C0.99 0.33 1.98 0.66 3 1 C2.01 1.33 1.02 1.66 0 2 C0.99 2.33 1.98 2.66 3 3 C2.67 3.99 2.34 4.98 2 6 C0.35 5.67 -1.3 5.34 -3 5 C-2.625 3.0625 -2.625 3.0625 -2 1 C-1.34 0.67 -0.68 0.34 0 0 Z " fill="#E2E09E" transform="translate(47,42)"/>
<path d="M0 0 C0.99 0 1.98 0 3 0 C3 1.65 3 3.3 3 5 C1.68 5.33 0.36 5.66 -1 6 C-1.625 4.125 -1.625 4.125 -2 2 C-1.34 1.34 -0.68 0.68 0 0 Z " fill="#E7E59E" transform="translate(169,25)"/>
<path d="M0 0 C1.98 0.495 1.98 0.495 4 1 C4 2.32 4 3.64 4 5 C2.35 4.67 0.7 4.34 -1 4 C-0.67 2.68 -0.34 1.36 0 0 Z " fill="#E4E29E" transform="translate(219,144)"/>
<path d="M0 0 C2.475 0.495 2.475 0.495 5 1 C5 2.33333333 5 3.66666667 5 5 C3.35 5 1.7 5 0 5 C0 3.35 0 1.7 0 0 Z " fill="#FBF9A4" transform="translate(54,193)"/>
<path d="M0 0 C2.475 0.495 2.475 0.495 5 1 C5 2.32 5 3.64 5 5 C3.35 4.67 1.7 4.34 0 4 C0 2.68 0 1.36 0 0 Z " fill="#EDEBA1" transform="translate(31,59)"/>
<path d="M0 0 C1.32 0 2.64 0 4 0 C4 1.65 4 3.3 4 5 C2.35 4.67 0.7 4.34 -1 4 C-0.67 2.68 -0.34 1.36 0 0 Z " fill="#EBE9A1" transform="translate(89,17)"/>
<path d="M0 0 C1.32 0.66 2.64 1.32 4 2 C3.67 2.66 3.34 3.32 3 4 C2.01 3.34 1.02 2.68 0 2 C0.66 3.32 1.32 4.64 2 6 C0.02 6.33 -1.96 6.66 -4 7 C-2.92598892 4.08482708 -2.22189824 2.22189824 0 0 Z " fill="#383454" transform="translate(56,198)"/>
<path d="M0 0 C0.99 0.33 1.98 0.66 3 1 C2.67 2.32 2.34 3.64 2 5 C0.68 5 -0.64 5 -2 5 C-1.125 1.125 -1.125 1.125 0 0 Z " fill="#ECEAA0" transform="translate(49,194)"/>
<path d="M0 0 C2.31 0.33 4.62 0.66 7 1 C6.01 1.495 6.01 1.495 5 2 C5 2.99 5 3.98 5 5 C5.66 5.33 6.32 5.66 7 6 C5.02 6 3.04 6 1 6 C1.33 5.01 1.66 4.02 2 3 C1.34 2.67 0.68 2.34 0 2 C0 1.34 0 0.68 0 0 Z " fill="#D0CD91" transform="translate(212,158)"/>
<path d="M0 0 C-0.33 0.66 -0.66 1.32 -1 2 C-3.64860427 2.59355614 -6.29197322 2.74209269 -9 3 C-9.33 2.34 -9.66 1.68 -10 1 C-3.375 -1.125 -3.375 -1.125 0 0 Z " fill="#221A55" transform="translate(107,128)"/>
<path d="M0 0 C1.32 0.66 2.64 1.32 4 2 C4 2.33 4 2.66 4 3 C0.94152152 3.54372951 -1.88772805 4 -5 4 C-5.33 3.01 -5.66 2.02 -6 1 C-4.02 1 -2.04 1 0 1 C0 0.67 0 0.34 0 0 Z " fill="#1B174F" transform="translate(41,51)"/>
<path d="M0 0 C0.66 0.33 1.32 0.66 2 1 C1.67 2.32 1.34 3.64 1 5 C2.65 4.67 4.3 4.34 6 4 C3.06171403 6.50298434 0.82097239 7.46930939 -3 8 C-1.125 2.25 -1.125 2.25 0 0 Z " fill="#1A134D" transform="translate(196,44)"/>
<path d="M0 0 C0.99 0.33 1.98 0.66 3 1 C0.69 3.31 -1.62 5.62 -4 8 C-4.66 7.67 -5.32 7.34 -6 7 C-4.02 4.69 -2.04 2.38 0 0 Z " fill="#E5D63F" transform="translate(37,32)"/>
<path d="M0 0 C2 2 2 2 3 5 C4.49985609 6.66710346 4.49985609 6.66710346 6 8 C5.38125 7.814375 4.7625 7.62875 4.125 7.4375 C1.95839822 6.76313824 1.95839822 6.76313824 0 8 C-0.98120464 4.94736336 -0.98120464 3.05263664 0 0 Z " fill="#E6E4A0" transform="translate(91,216)"/>
<path d="M0 0 C1.32 0 2.64 0 4 0 C4.33 1.32 4.66 2.64 5 4 C3.68 4.33 2.36 4.66 1 5 C0.67 3.35 0.34 1.7 0 0 Z " fill="#F1F0A3" transform="translate(173,206)"/>
<path d="M0 0 C-0.99 0.66 -1.98 1.32 -3 2 C-2.01 2.66 -1.02 3.32 0 4 C-2.31 3.67 -4.62 3.34 -7 3 C-7.33 2.01 -7.66 1.02 -8 0 C-5.13822943 -1.43088528 -3.06624227 -0.59991697 0 0 Z " fill="#757371" transform="translate(223,150)"/>
<path d="M0 0 C1.9375 0.3125 1.9375 0.3125 4 1 C4.33 1.99 4.66 2.98 5 4 C4.01 4.66 3.02 5.32 2 6 C1.67 5.01 1.34 4.02 1 3 C0.34 3 -0.32 3 -1 3 C-0.67 2.01 -0.34 1.02 0 0 Z " fill="#D6D49A" transform="translate(55,34)"/>
<path d="M0 0 C0.99 0.33 1.98 0.66 3 1 C2.67 2.65 2.34 4.3 2 6 C1.01 5.67 0.02 5.34 -1 5 C-0.67 3.35 -0.34 1.7 0 0 Z " fill="#F5F4A5" transform="translate(111,221)"/>
<path d="M0 0 C1.65 0 3.3 0 5 0 C5.33 1.32 5.66 2.64 6 4 C4.35 4 2.7 4 1 4 C0.67 2.68 0.34 1.36 0 0 Z " fill="#898677" transform="translate(118,220)"/>
<path d="M0 0 C0.99 0 1.98 0 3 0 C3.33 1.65 3.66 3.3 4 5 C3.01 5.33 2.02 5.66 1 6 C0.34 4.35 -0.32 2.7 -1 1 C-0.67 0.67 -0.34 0.34 0 0 Z " fill="#E1DF9D" transform="translate(155,215)"/>
<path d="M0 0 C1.32 0 2.64 0 4 0 C2.84826645 2.46800047 1.95216435 4.04783565 0 6 C-0.66 5.34 -1.32 4.68 -2 4 C-1.34 2.68 -0.68 1.36 0 0 Z " fill="#E2E09D" transform="translate(74,213)"/>
<path d="M0 0 C2.97 0 5.94 0 9 0 C9.33 0.66 9.66 1.32 10 2 C8.02 2.66 6.04 3.32 4 4 C4 3.01 4 2.02 4 1 C2.68 0.67 1.36 0.34 0 0 Z " fill="#E0DF9B" transform="translate(16,152)"/>
<path d="M0 0 C0.99 0 1.98 0 3 0 C3 1.98 3 3.96 3 6 C2.01 6 1.02 6 0 6 C0 4.02 0 2.04 0 0 Z " fill="#FEFDA5" transform="translate(125,222)"/>
<path d="M0 0 C2.125 0.9375 2.125 0.9375 4 2 C3.67 2.99 3.34 3.98 3 5 C-0.875 3.25 -0.875 3.25 -2 1 C-1.34 0.67 -0.68 0.34 0 0 Z " fill="#E8E69F" transform="translate(196,188)"/>
<path d="M0 0 C0.33 0.66 0.66 1.32 1 2 C2.97888961 2.72693904 4.97954558 3.39816251 7 4 C3.86650268 5.04449911 3.01031744 4.93423645 0 4 C0 4.66 0 5.32 0 6 C-0.66 5.67 -1.32 5.34 -2 5 C-1.34 3.35 -0.68 1.7 0 0 Z " fill="#2B2750" transform="translate(17,85)"/>
<path d="M0 0 C0.99 0.33 1.98 0.66 3 1 C1.75 3.5 1.75 3.5 0 6 C-1.32 6 -2.64 6 -4 6 C-4 5.34 -4 4.68 -4 4 C-2.68 3.67 -1.36 3.34 0 3 C0 2.01 0 1.02 0 0 Z " fill="#A9A686" transform="translate(201,55)"/>
<path d="M0 0 C0.66 0.66 1.32 1.32 2 2 C1.625 4.625 1.625 4.625 1 7 C-1.97 6.505 -1.97 6.505 -5 6 C-4.360625 5.566875 -3.72125 5.13375 -3.0625 4.6875 C-0.73253997 3.08760823 -0.73253997 3.08760823 0 0 Z " fill="#E6E49E" transform="translate(174,27)"/>
<path d="M0 0 C2.475 0.99 2.475 0.99 5 2 C5 2.66 5 3.32 5 4 C3.35 4.33 1.7 4.66 0 5 C0 3.35 0 1.7 0 0 Z " fill="#A6A384" transform="translate(23,156)"/>
</svg>
