<svg width="32" height="32" viewBox="0 0 32 32" fill="none" xmlns="http://www.w3.org/2000/svg">
<path d="M12.0124 14.3333C8.88704 14.3333 6.3457 11.7907 6.3457 8.66667C6.3457 5.54267 8.88704 3 12.0124 3C15.1377 3 17.679 5.54267 17.679 8.66667C17.679 11.7907 15.1377 14.3333 12.0124 14.3333ZM12.0124 5C9.9897 5 8.3457 6.644 8.3457 8.66667C8.3457 10.6893 9.9897 12.3333 12.0124 12.3333C14.035 12.3333 15.679 10.6893 15.679 8.66667C15.679 6.644 14.0337 5 12.0124 5ZM17.3296 29H6.67106C3.44439 29 1.66699 27.2334 1.66699 24.0254C1.66699 20.4774 3.67499 16.3333 9.33366 16.3333H14.667C20.3257 16.3333 22.3337 20.4761 22.3337 24.0254C22.3337 27.2334 20.5563 29 17.3296 29ZM9.33366 18.3333C4.07633 18.3333 3.66699 22.6894 3.66699 24.0254C3.66699 26.1107 4.56573 27 6.67106 27H17.3296C19.4349 27 20.3337 26.1107 20.3337 24.0254C20.3337 22.6907 19.9243 18.3333 14.667 18.3333H9.33366ZM22.0804 14.9199C20.8684 14.9199 19.7297 14.4586 18.875 13.6213C18.4803 13.2346 18.4724 12.6014 18.859 12.2067C19.247 11.812 19.8803 11.8067 20.2736 12.1921C20.7523 12.6614 21.3951 12.9199 22.0804 12.9199C23.5537 12.9199 24.7083 11.7666 24.7083 10.2933C24.7083 8.84529 23.5297 7.66667 22.0804 7.66667C21.6697 7.66667 21.299 7.75068 20.9777 7.91602C20.4884 8.16935 19.8844 7.97472 19.631 7.48405C19.3777 6.99338 19.5723 6.3907 20.063 6.13737C20.671 5.82537 21.3497 5.66667 22.0804 5.66667C24.6324 5.66667 26.7083 7.74263 26.7083 10.2933C26.707 12.844 24.6324 14.9199 22.0804 14.9199ZM26.2137 26.3333H25.307C24.755 26.3333 24.307 25.8853 24.307 25.3333C24.307 24.7813 24.755 24.3333 25.307 24.3333H26.2137C27.7404 24.3333 28.3337 23.7467 28.3337 22.2401C28.3337 21.2547 28.031 18.04 24.147 18.04H22.1323C21.5803 18.04 21.1323 17.592 21.1323 17.04C21.1323 16.488 21.5803 16.04 22.1323 16.04H24.147C28.7136 16.04 30.3337 19.3801 30.3337 22.2401C30.3337 24.8414 28.8324 26.3333 26.2137 26.3333Z" fill="url(#paint0_linear_3404_145233)"/>
<defs>
<linearGradient id="paint0_linear_3404_145233" x1="1.66699" y1="15.8602" x2="30.3337" y2="15.8602" gradientUnits="userSpaceOnUse">
<stop stop-color="#1D4289"/>
<stop offset="0.765625" stop-color="#00B74F"/>
</linearGradient>
</defs>
</svg>
