<svg width="32" height="32" viewBox="0 0 32 32" fill="none" xmlns="http://www.w3.org/2000/svg">
<path d="M26.944 10.8548L18.784 4.01354C17.172 2.6602 14.828 2.6602 13.216 4.01354L5.05599 10.8548C3.78132 11.9122 3 12.7042 3 15.5336V24.0002C3 27.2242 4.776 29.0002 8 29.0002H24C27.224 29.0002 29 27.2242 29 24.0002V15.5336C29 12.7042 28.2187 11.9122 26.944 10.8548ZM27 24.0002C27 26.1029 26.1027 27.0002 24 27.0002H8C5.89733 27.0002 5 26.1029 5 24.0002V15.5336C5 13.4989 5.33603 13.2202 6.33203 12.3936L14.5 5.5456C14.9347 5.1816 15.468 4.99889 16 4.99889C16.532 4.99889 17.0653 5.1816 17.5 5.5456L25.668 12.3936C26.664 13.2202 27 13.4989 27 15.5336V24.0002ZM19.3333 19.4842C19.3333 20.2802 19.0266 21.0309 18.4666 21.5962C18.06 22.0109 17.552 22.2869 17 22.4082V22.6669C17 23.2189 16.552 23.6669 16 23.6669C15.448 23.6669 15 23.2189 15 22.6669V22.4069C13.78 22.1376 12.8294 21.1162 12.6854 19.8135C12.6241 19.2642 13.02 18.7695 13.5693 18.7095C14.104 18.6482 14.6107 19.0441 14.672 19.5935C14.728 20.1001 15.1413 20.4815 15.6333 20.4815H16.368C16.62 20.4815 16.86 20.3789 17.0426 20.1935C17.232 20.0015 17.3346 19.7509 17.3346 19.4842C17.3346 19.0256 17.0306 18.6268 16.5986 18.5148L14.9093 18.0895C14.2653 17.9229 13.6893 17.5428 13.2866 17.0161C12.888 16.5055 12.6667 15.8508 12.6667 15.1828C12.6667 13.7495 13.668 12.5522 15 12.2575V12.0002C15 11.4482 15.448 11.0002 16 11.0002C16.552 11.0002 17 11.4482 17 12.0002V12.2601C18.22 12.5295 19.1706 13.5509 19.3146 14.8535C19.3759 15.4029 18.98 15.8975 18.4307 15.9575C17.8973 16.0109 17.3893 15.6229 17.328 15.0736C17.272 14.5669 16.8587 14.1856 16.3667 14.1856H15.632C15.1 14.1856 14.6654 14.6321 14.6654 15.1828C14.6654 15.4095 14.7373 15.6268 14.868 15.7948C15.0067 15.9761 15.1894 16.0975 15.4001 16.1522L17.0894 16.5775C18.4134 16.9175 19.3333 18.1122 19.3333 19.4842Z" fill="url(#paint0_linear_3404_145229)"/>
<defs>
<linearGradient id="paint0_linear_3404_145229" x1="3" y1="15.8596" x2="29" y2="15.8596" gradientUnits="userSpaceOnUse">
<stop stop-color="#1D4289"/>
<stop offset="0.765625" stop-color="#00B74F"/>
</linearGradient>
</defs>
</svg>
