<svg width="80" height="81" viewBox="0 0 80 81" fill="none" xmlns="http://www.w3.org/2000/svg">
<g clip-path="url(#clip0_3049_129754)">
<path d="M15.3081 42.541L8.56359 43.2266C4.67625 43.6218 1.71875 46.8952 1.71875 50.8026V67.4877H44.128" stroke="#2E3A5B" stroke-width="2.5" stroke-miterlimit="10" stroke-linejoin="round"></path>
<path d="M23.0796 5.45208C22.5604 5.36108 22.0342 5.31544 21.5071 5.31567C16.5165 5.31567 12.4707 9.36146 12.4707 14.3521C12.4707 17.4257 14.0082 20.12 16.3529 21.7525M21.7993 39.4799V35.5358M21.7993 39.4799L15.3101 42.5654L21.3438 51.9847L27.3776 47.1013L21.7993 39.4799Z" stroke="#2E3A5B" stroke-width="2.5" stroke-miterlimit="10" stroke-linecap="round" stroke-linejoin="round"></path>
<path d="M39.4492 42.541L46.1938 43.2266C48.3805 43.449 50.2728 44.582 51.5102 46.2262" stroke="#2E3A5B" stroke-width="2.5" stroke-miterlimit="10" stroke-linejoin="round"></path>
<path d="M32.957 39.48V35.5359M32.957 39.48L39.4462 42.5655L33.4123 51.9848L27.3786 47.1014L32.957 39.48ZM20.6758 9.13984C22.4186 5.15094 26.3987 2.36328 31.03 2.36328C37.2675 2.36328 42.3239 7.41969 42.3239 13.6572C42.3239 17.0792 40.7991 20.125 38.3947 22.1917" stroke="#2E3A5B" stroke-width="2.5" stroke-miterlimit="10" stroke-linecap="round" stroke-linejoin="round"></path>
<path d="M32.3429 17.1779C29.264 18.9059 25.4368 18.9745 22.3346 17.2885C19.6601 15.8351 16.4043 17.7713 16.4043 20.8152V25.6202C16.4043 31.6935 21.3277 36.617 27.401 36.617C33.4743 36.617 38.3976 31.6937 38.3976 25.6202V20.6352C38.3977 17.5671 35.0185 15.6763 32.3429 17.1779Z" stroke="#2E3A5B" stroke-width="2.5" stroke-miterlimit="10" stroke-linecap="round" stroke-linejoin="round"></path>
<path d="M60.75 78.9258C70.4322 78.9258 78.2812 71.0768 78.2812 61.3945C78.2812 51.7123 70.4322 43.8633 60.75 43.8633C51.0678 43.8633 43.2188 51.7123 43.2188 61.3945C43.2188 71.0768 51.0678 78.9258 60.75 78.9258Z" stroke="#00B74F" stroke-width="2.5" stroke-miterlimit="10" stroke-linecap="round" stroke-linejoin="round"></path>
<path d="M67.0066 57.3044L58.8265 65.4846L54.4941 61.1524" stroke="#00B74F" stroke-width="2.5" stroke-miterlimit="10" stroke-linecap="round" stroke-linejoin="round"></path>
</g>
<defs>
<clipPath id="clip0_3049_129754">
<rect width="80" height="80" fill="white" transform="translate(0 0.644531)"></rect>
</clipPath>
</defs>
</svg>
