<svg width="33" height="32" viewBox="0 0 33 32" fill="none" xmlns="http://www.w3.org/2000/svg">
<path d="M25.2524 15.0496C24.5671 15.0496 23.9224 15.1137 23.3011 15.2058V8.11893C23.3011 6.48615 22.1539 5.04511 20.5835 4.69858L4.97682 1.09454C3.92941 0.846342 2.84456 1.09294 2.00007 1.7626C1.15402 2.43382 0.666992 3.43747 0.666992 4.51298V27.1471C0.666992 27.3282 0.671617 27.5094 0.685666 27.5812C0.832398 29.8758 2.23111 31.2758 4.43833 31.4131C4.59911 31.435 4.7786 31.4398 4.95967 31.4398H22.1304C22.3973 31.4398 22.6315 31.3351 22.8282 31.1837C23.5915 31.3382 24.3985 31.4398 25.2524 31.4398C29.3406 31.4398 32.667 29.5151 32.667 27.1471V19.3423C32.667 16.8946 29.4795 15.0496 25.2524 15.0496ZM30.3255 23.2447C30.3255 24.0221 28.3025 25.1959 25.2524 25.1959C22.2022 25.1959 20.1792 24.0221 20.1792 23.2447V22.5111C21.4873 23.2104 23.2449 23.6349 25.2524 23.6349C27.2598 23.6349 29.0174 23.2088 30.3255 22.5111V23.2447ZM30.3255 19.3423C30.3255 20.1196 28.3025 21.2935 25.2524 21.2935C22.2022 21.2935 20.1792 20.1196 20.1792 19.3423C20.1792 18.5649 22.2022 17.391 25.2524 17.391C28.3025 17.391 30.3255 18.5649 30.3255 19.3423ZM4.67404 29.0858C3.54077 29.014 3.09283 28.566 3.01322 27.3453C3.00541 27.2844 3.00846 27.2158 3.00846 27.1471V4.51298C3.00846 4.15552 3.17081 3.82313 3.45491 3.59835C3.73589 3.37513 4.10429 3.29385 4.44615 3.37502L20.0668 6.98249C20.585 7.09645 20.9597 7.57415 20.9597 8.11893V15.8049C19.049 16.5651 17.8377 17.8375 17.8377 19.3423V27.1471C17.8377 27.8527 18.1624 28.5099 18.6853 29.0983H16.2767V24.0252C16.2767 21.6572 14.3521 19.7325 11.9841 19.7325C9.61607 19.7325 7.69138 21.6572 7.69138 24.0252V29.0983H4.95967C4.88787 29.0983 4.81921 29.1014 4.67404 29.0858ZM13.9353 29.0983H10.0328V24.0252C10.0328 22.9497 10.9086 22.074 11.9841 22.074C13.0596 22.074 13.9353 22.9497 13.9353 24.0252V29.0983ZM25.2524 29.0983C22.1491 29.0983 20.1792 27.7262 20.1792 27.1471V26.4135C21.4873 27.1128 23.2449 27.5374 25.2524 27.5374C27.2598 27.5374 29.0174 27.1113 30.3255 26.4135V27.1471C30.3255 27.7262 28.3556 29.0983 25.2524 29.0983ZM13.1548 11.5374C13.1548 10.8911 13.6793 10.3666 14.3255 10.3666H15.8865C16.5327 10.3666 17.0572 10.8911 17.0572 11.5374C17.0572 12.1836 16.5327 12.7081 15.8865 12.7081H14.3255C13.6793 12.7081 13.1548 12.1836 13.1548 11.5374ZM6.91089 11.5374C6.91089 10.8911 7.43538 10.3666 8.08163 10.3666H9.6426C10.2888 10.3666 10.8133 10.8911 10.8133 11.5374C10.8133 12.1836 10.2888 12.7081 9.6426 12.7081H8.08163C7.43538 12.7081 6.91089 12.1836 6.91089 11.5374ZM13.1548 16.2203C13.1548 15.5741 13.6793 15.0496 14.3255 15.0496H15.8865C16.5327 15.0496 17.0572 15.5741 17.0572 16.2203C17.0572 16.8665 16.5327 17.391 15.8865 17.391H14.3255C13.6793 17.391 13.1548 16.8665 13.1548 16.2203ZM6.91089 16.2203C6.91089 15.5741 7.43538 15.0496 8.08163 15.0496H9.6426C10.2888 15.0496 10.8133 15.5741 10.8133 16.2203C10.8133 16.8665 10.2888 17.391 9.6426 17.391H8.08163C7.43538 17.391 6.91089 16.8665 6.91089 16.2203Z" fill="url(#paint0_linear_3404_145231)"/>
<defs>
<linearGradient id="paint0_linear_3404_145231" x1="0.666992" y1="16.0562" x2="32.667" y2="16.0562" gradientUnits="userSpaceOnUse">
<stop stop-color="#1D4289"/>
<stop offset="0.765625" stop-color="#00B74F"/>
</linearGradient>
</defs>
</svg>
