<svg width="80" height="81" viewBox="0 0 80 81" fill="none" xmlns="http://www.w3.org/2000/svg">
<path d="M40.0008 5.5835V7.96537M56.7327 28.2701H54.3558M25.6458 28.2701H23.2689M26.8093 15.0507L27.6496 15.8927M53.1924 15.0507L52.3521 15.8927M40.0008 65.0449L38.4896 65.7394C37.4957 66.1962 36.3863 65.3869 36.5118 64.2966L36.7025 62.6388L35.5777 61.4102C34.838 60.6022 35.2616 59.2927 36.3332 59.0757L37.9624 58.7457L38.7785 57.2919C39.3152 56.3358 40.6864 56.3358 41.2232 57.2919L42.0392 58.7457L43.6685 59.0757C44.7399 59.2927 45.1636 60.6022 44.4239 61.4102L43.2991 62.6388L43.4899 64.2966C43.6153 65.3869 42.506 66.1963 41.5121 65.7394L40.0008 65.0449ZM55.1271 65.0449L53.6158 65.7394C52.6219 66.1962 51.5125 65.3869 51.638 64.2966L51.8288 62.6388L50.7039 61.4102C49.9643 60.6022 50.3878 59.2927 51.4594 59.0757L53.0886 58.7457L53.9047 57.2919C54.4414 56.3358 55.8127 56.3358 56.3494 57.2919L57.1655 58.7457L58.7947 59.0757C59.8661 59.2927 60.2899 60.6022 59.5502 61.4102L58.4253 62.6388L58.6161 64.2966C58.7416 65.3869 57.6322 66.1963 56.6383 65.7394L55.1271 65.0449ZM24.8746 65.0449L23.3633 65.7394C22.3694 66.1962 21.26 65.3869 21.3855 64.2966L21.5763 62.6388L20.4514 61.4102C19.7118 60.6022 20.1353 59.2927 21.2069 59.0757L22.8361 58.7457L23.6522 57.2919C24.1889 56.3358 25.5602 56.3358 26.0969 57.2919L26.913 58.7457L28.5422 59.0757C29.6136 59.2927 30.0374 60.6022 29.2977 61.4102L28.1728 62.6388L28.3636 64.2966C28.4891 65.3869 27.3797 66.1963 26.3858 65.7394L24.8746 65.0449Z" stroke="#00B74F" stroke-width="2.5" stroke-miterlimit="10" stroke-linecap="round" stroke-linejoin="round"></path>
<path d="M56.4116 49.4531C55.2641 42.0408 48.3536 35.8638 40 35.8638C31.6464 35.8638 24.7359 42.0408 23.5884 49.4531M12.9016 50.0755H67.0984V72.3691H12.9016V50.0755ZM78.2812 75.7052H67.0984V56.3706H78.2812L75.517 66.0378L78.2812 75.7052ZM1.71875 75.7052H12.9016V56.3706H1.71875L4.48297 66.0378L1.71875 75.7052ZM40.0009 35.8638H39.9991C35.0256 35.8638 30.9939 31.832 30.9939 26.8586V23.4583C30.9939 18.4848 35.0256 14.4531 39.9991 14.4531H40.0009C44.9744 14.4531 49.0061 18.4848 49.0061 23.4583V26.8586C49.0061 31.832 44.9744 35.8638 40.0009 35.8638Z" stroke="#2E3A5B" stroke-width="2.5" stroke-miterlimit="10" stroke-linecap="round" stroke-linejoin="round"></path>
</svg>
