<svg width="80" height="80" viewBox="0 0 80 80" fill="none" xmlns="http://www.w3.org/2000/svg">
<path d="M40 35.8945C47.5939 35.8945 53.75 29.7384 53.75 22.1445C53.75 14.5506 47.5939 8.39453 40 8.39453C32.4061 8.39453 26.25 14.5506 26.25 22.1445C26.25 29.7384 32.4061 35.8945 40 35.8945Z" stroke="#00B74F" stroke-width="2.5" stroke-miterlimit="10" stroke-linecap="round" stroke-linejoin="round"></path>
<path d="M40 28.8633C43.7107 28.8633 46.7188 25.8552 46.7188 22.1445C46.7188 18.4339 43.7107 15.4258 40 15.4258C36.2893 15.4258 33.2812 18.4339 33.2812 22.1445C33.2812 25.8552 36.2893 28.8633 40 28.8633Z" stroke="#00B74F" stroke-width="2.5" stroke-miterlimit="10" stroke-linecap="round" stroke-linejoin="round"></path>
<path d="M59.847 15.9648C57.2158 7.50547 49.3252 1.36328 40 1.36328C28.5228 1.36328 19.2188 10.6673 19.2188 22.1445C19.2188 33.6217 28.5228 42.9258 40 42.9258C49.3252 42.9258 57.2158 36.7836 59.847 28.3242" stroke="#00B74F" stroke-width="2.5" stroke-miterlimit="10" stroke-linejoin="round"></path>
<path d="M53.7505 22.1445L60.6255 15.2695H73.0305L66.1555 22.1445M53.7505 22.1445H66.1555M53.7505 22.1445L60.6255 29.0195H73.0305L66.1555 22.1445M43.386 63.2648H36.6152C31.4376 63.2648 27.2402 67.4622 27.2402 72.6398V77.9258H52.761V72.6398C52.761 67.4622 48.5637 63.2648 43.386 63.2648Z" stroke="#2E3A5B" stroke-width="2.5" stroke-miterlimit="10" stroke-linecap="round" stroke-linejoin="round"></path>
<path d="M40.0003 63.2648C43.5537 63.2648 46.4342 60.3842 46.4342 56.8309C46.4342 53.2775 43.5537 50.397 40.0003 50.397C36.447 50.397 33.5664 53.2775 33.5664 56.8309C33.5664 60.3842 36.447 63.2648 40.0003 63.2648Z" stroke="#2E3A5B" stroke-width="2.5" stroke-miterlimit="10" stroke-linecap="round" stroke-linejoin="round"></path>
<path d="M68.9055 63.2649H62.1348C56.9571 63.2649 52.7598 67.4622 52.7598 72.6399V77.9258H78.2805V72.6399C78.2805 67.4622 74.0832 63.2649 68.9055 63.2649Z" stroke="#2E3A5B" stroke-width="2.5" stroke-miterlimit="10" stroke-linecap="round" stroke-linejoin="round"></path>
<path d="M65.5198 63.2648C69.0732 63.2648 71.9538 60.3842 71.9538 56.8309C71.9538 53.2775 69.0732 50.397 65.5198 50.397C61.9665 50.397 59.0859 53.2775 59.0859 56.8309C59.0859 60.3842 61.9665 63.2648 65.5198 63.2648Z" stroke="#2E3A5B" stroke-width="2.5" stroke-miterlimit="10" stroke-linecap="round" stroke-linejoin="round"></path>
<path d="M17.8645 63.2649H11.0938C5.91609 63.2649 1.71875 67.4622 1.71875 72.6399V77.9258H27.2395V72.6399C27.2395 67.4622 23.0422 63.2649 17.8645 63.2649Z" stroke="#2E3A5B" stroke-width="2.5" stroke-miterlimit="10" stroke-linecap="round" stroke-linejoin="round"></path>
<path d="M14.4788 63.2648C18.0322 63.2648 20.9127 60.3842 20.9127 56.8309C20.9127 53.2775 18.0322 50.397 14.4788 50.397C10.9255 50.397 8.04492 53.2775 8.04492 56.8309C8.04492 60.3842 10.9255 63.2648 14.4788 63.2648Z" stroke="#2E3A5B" stroke-width="2.5" stroke-miterlimit="10" stroke-linecap="round" stroke-linejoin="round"></path>
<path d="M41.5351 22.1445H71.4055M14.4785 63.2648V67.4542M40.0191 63.2648V67.4542M65.5598 63.2648V67.4542" stroke="#2E3A5B" stroke-width="2.5" stroke-miterlimit="10" stroke-linecap="round" stroke-linejoin="round"></path>
</svg>
