<svg width="81" height="81" viewBox="0 0 81 81" fill="none" xmlns="http://www.w3.org/2000/svg">
<g clip-path="url(#clip0_3049_129771)">
<path d="M57.5775 3.75629C65.8869 1.79036 65.5873 6.97161 72.0627 5.23645V16.6297C65.6058 18.3597 65.8853 13.2132 57.6486 15.1329M51.7695 46.8641C48.0977 43.1922 42.5117 40.3407 36.8086 40.3407" stroke="#00B74F" stroke-width="2.5" stroke-miterlimit="2.6131" stroke-linecap="round" stroke-linejoin="round"></path>
<path d="M39.058 37.5281L36.2455 40.3406L39.058 43.1531M30.3945 65.1584C34.0664 61.4865 39.6523 58.635 45.3555 58.635" stroke="#00B74F" stroke-width="2.5" stroke-miterlimit="2.6131" stroke-linecap="round" stroke-linejoin="round"></path>
<path d="M43.1067 55.8225L45.9192 58.6348L43.1067 61.4473M30.3945 28.5698C34.0664 24.8979 39.6523 22.0464 45.3555 22.0464" stroke="#00B74F" stroke-width="2.5" stroke-miterlimit="2.6131" stroke-linecap="round" stroke-linejoin="round"></path>
<path d="M43.1055 19.2339L45.918 22.0464L43.1055 24.8589" stroke="#00B74F" stroke-width="2.5" stroke-miterlimit="2.6131" stroke-linecap="round" stroke-linejoin="round"></path>
<path d="M18.9896 59.3931C19.28 56.172 16.9042 53.3253 13.683 53.0348C10.4618 52.7444 7.61512 55.1202 7.3247 58.3414C7.03427 61.5626 9.4101 64.4093 12.6313 64.6997C15.8524 64.9901 18.6991 62.6143 18.9896 59.3931Z" stroke="#2E3A5B" stroke-width="2.5" stroke-miterlimit="22.9256" stroke-linecap="round" stroke-linejoin="round"></path>
<path fill-rule="evenodd" clip-rule="evenodd" d="M24.0938 78.9258V75.8008C24.0938 69.7602 19.1969 64.8633 13.1562 64.8633C7.11563 64.8633 2.21875 69.7602 2.21875 75.8008V78.9258H24.0938Z" stroke="#2E3A5B" stroke-width="2.5" stroke-miterlimit="22.9256" stroke-linecap="round" stroke-linejoin="round"></path>
<path d="M73.6651 47.0323C74.0312 43.8189 71.723 40.9171 68.5095 40.5509C65.2961 40.1848 62.3943 42.493 62.0282 45.7065C61.662 48.9199 63.9702 51.8217 67.1837 52.1878C70.3971 52.554 73.2989 50.2458 73.6651 47.0323Z" stroke="#2E3A5B" stroke-width="2.5" stroke-miterlimit="22.9256" stroke-linecap="round" stroke-linejoin="round"></path>
<path fill-rule="evenodd" clip-rule="evenodd" d="M78.7812 66.4258V63.3008C78.7812 57.2602 73.8844 52.3633 67.8438 52.3633C61.8031 52.3633 56.9062 57.2602 56.9062 63.3008V66.4258H78.7812Z" stroke="#2E3A5B" stroke-width="2.5" stroke-miterlimit="22.9256" stroke-linecap="round" stroke-linejoin="round"></path>
<path d="M18.5675 24.5224C19.8052 21.5344 18.3863 18.1088 15.3982 16.8711C12.4102 15.6334 8.98458 17.0523 7.74689 20.0404C6.5092 23.0284 7.92814 26.454 10.9162 27.6917C13.9042 28.9294 17.3299 27.5105 18.5675 24.5224Z" stroke="#2E3A5B" stroke-width="2.5" stroke-miterlimit="22.9256" stroke-linecap="round" stroke-linejoin="round"></path>
<path fill-rule="evenodd" clip-rule="evenodd" d="M24.0938 42.3374V39.2124C24.0938 33.1718 19.1969 28.2749 13.1562 28.2749C7.11563 28.2749 2.21875 33.1718 2.21875 39.2124V42.3374H24.0938Z" stroke="#2E3A5B" stroke-width="2.5" stroke-miterlimit="22.9256" stroke-linecap="round" stroke-linejoin="round"></path>
<path d="M56.9062 2.36328V28.2748" stroke="#2E3A5B" stroke-width="2.5" stroke-miterlimit="2.6131" stroke-linecap="round" stroke-linejoin="round"></path>
</g>
<defs>
<clipPath id="clip0_3049_129771">
<rect width="80" height="80" fill="white" transform="translate(0.5 0.644531)"></rect>
</clipPath>
</defs>
</svg>
