<svg width="81" height="81" viewBox="0 0 81 81" fill="none" xmlns="http://www.w3.org/2000/svg">
<g clip-path="url(#clip0_3049_129779)">
<path d="M78.6731 20.8333H76.3388M74.2867 10.332L72.6359 11.9689M74.2867 31.3345L72.6359 29.6977M20.6797 20.8333H23.0141M25.0663 10.332L26.7169 11.9689M25.0663 31.3345L26.7169 29.6977" stroke="#00B74F" stroke-width="2.5" stroke-miterlimit="10" stroke-linecap="round" stroke-linejoin="round"></path>
<path d="M66.6842 63.4001C68.8263 62.5191 69.9088 60.0216 69.087 57.8562C68.2383 55.6188 65.7192 54.5133 63.4981 55.4032L52.8052 59.6874M22.7305 52.308L41.0583 52.2588C42.6425 52.2546 44.1744 52.8257 45.3694 53.8658L55.4731 62.6618C57.1402 64.113 57.2547 66.6638 55.7244 68.2587L55.6581 68.3277C54.2558 69.7893 52.005 69.9712 50.4022 68.7654C46.6522 65.9443 40.4648 61.3099 40.4648 61.3099" stroke="#2E3A5B" stroke-width="2.5" stroke-miterlimit="10" stroke-linecap="round" stroke-linejoin="round"></path>
<path d="M56.3395 67.3521L71.2057 61.6727C73.4268 60.7829 75.9459 61.8883 76.7946 64.1257C77.6162 66.2913 76.5646 68.7174 74.4226 69.5983L52.7102 78.5279C51.4749 79.0359 50.0931 79.0579 48.8423 78.5894L23.5449 69.1158" stroke="#2E3A5B" stroke-width="2.5" stroke-miterlimit="10" stroke-linecap="round" stroke-linejoin="round"></path>
<path d="M23.1504 52.3035L23.2096 74.1767L2.38246 74.233L2.32328 52.3598L23.1504 52.3035Z" stroke="#2E3A5B" stroke-width="2.5" stroke-miterlimit="10" stroke-linecap="round" stroke-linejoin="round"></path>
<path d="M49.6731 24.5389V35.5359M66.8306 19.5104C66.8306 9.95887 59.0166 2.23121 49.4288 2.36449C40.1514 2.49355 32.5953 10.0882 32.5163 19.3607C32.4656 25.2876 35.4241 30.5271 39.9567 33.6453C41.6714 34.8248 42.6863 36.7801 42.6863 38.8606V40.8464C42.6863 44.7028 45.8144 47.8292 49.6731 47.8292C53.5319 47.8292 56.66 44.7029 56.66 40.8464V38.8611C56.66 36.7607 57.7083 34.8101 59.4355 33.6136C63.9041 30.5182 66.8306 25.3559 66.8306 19.5104Z" stroke="#00B74F" stroke-width="2.5" stroke-miterlimit="10" stroke-linecap="round" stroke-linejoin="round"></path>
<path d="M45.9653 20.8333C48.0131 20.8333 49.6733 22.4925 49.6733 24.539C49.6733 22.4923 51.3334 20.8333 53.3812 20.8333M42.418 36.1023H57.1952" stroke="#00B74F" stroke-width="2.5" stroke-miterlimit="10" stroke-linecap="round" stroke-linejoin="round"></path>
</g>
<defs>
<clipPath id="clip0_3049_129779">
<rect width="80" height="80" fill="white" transform="translate(0.5 0.644531)"></rect>
</clipPath>
</defs>
</svg>
